<?xml version="1.0" standalone="no"?>
<!DOCTYPE svg PUBLIC "-//W3C//DTD SVG 1.1//EN" "http://www.w3.org/Graphics/SVG/1.1/DTD/svg11.dtd" >
<svg xmlns="http://www.w3.org/2000/svg">
<metadata>Generated by IcoMoon</metadata>
<defs>
<font id="defined-font" horiz-adv-x="1024">
<font-face units-per-em="1024" ascent="960" descent="-64" />
<missing-glyph horiz-adv-x="1024" />
<glyph unicode="&#x20;" horiz-adv-x="512" d="" />
<glyph unicode="&#xe900;" glyph-name="job" d="M884.68 551.489c0-8.978-5.201-16.256-11.617-16.256h-240.1c-6.416 0-11.617 7.278-11.617 16.256v0c0 8.978 5.201 16.256 11.617 16.256h240.1c6.416 0 11.617-7.278 11.617-16.256v0zM884.68 421.616c0-8.978-7.278-16.256-16.256-16.256h-335.969c-8.978 0-16.256 7.278-16.256 16.256v0c0 8.978 7.278 16.256 16.256 16.256h335.969c8.978 0.001 16.256-7.278 16.256-16.256v0zM884.68 304.544c0-8.978-7.278-16.256-16.256-16.256h-335.969c-8.978 0-16.256 7.278-16.256 16.256v0c0 8.978 7.278 16.256 16.256 16.256h335.969c8.978 0.001 16.256-7.277 16.256-16.256v0zM390.824 413.123c-16.274-31.115-48.858-52.353-86.405-52.353s-70.13 21.238-86.405 52.353c-62.042-31.536-104.553-95.966-104.553-170.331h381.916c0 74.364-42.511 138.794-104.553 170.331zM405.011 500.017c0-55.556-45.038-100.593-100.593-100.593s-100.593 45.038-100.593 100.593c0 55.556 45.038 100.593 100.593 100.593s100.593-45.038 100.593-100.593zM1024.251 676.834c0 0.001 0 0.002 0 0.003s0 0.002 0 0.003v0.816h-0.020c-0.441 54.558-44.571 98.688-99.129 99.129v0.020l-826.247-0.020c-54.558-0.441-98.688-44.571-99.129-99.129h-0.020v-472.711h0.020c0.441-54.558 44.571-98.688 99.129-99.129v-0.020l826.248 0.020c54.558 0.441 98.688 44.571 99.129 99.129h0.020v0.816c0 0.001 0 0.002 0 0.003s0 0.002 0 0.003v471.066zM958.152 249.004c0-0.001 0-0.001 0-0.002v-0.629h-0.017c-0.384-42.082-38.821-76.122-86.338-76.461v-0.015l-719.636 0.015c-47.518 0.34-85.955 34.379-86.338 76.461h-0.018v385.858h0.018c0.383 42.082 38.821 76.122 86.338 76.461v0.015l719.636-0.015c47.518-0.34 85.955-34.379 86.338-76.461h0.017v-0.629c0-0.001 0-0.001 0-0.002s0-0.001 0-0.002v-384.59c0-0.001 0-0.002 0-0.003z" />
<glyph unicode="&#xe901;" glyph-name="department" d="M635.156 759.886c0-41.677-35.101-75.462-78.401-75.462h-89.9c-43.3 0-78.401 33.785-78.401 75.462v0c0 41.677 35.101 75.462 78.401 75.462h89.9c43.3 0 78.401-33.785 78.401-75.462v0zM246.408 117.464c0-41.677-35.101-75.462-78.401-75.462h-89.901c-43.3 0-78.401 33.785-78.401 75.462v0c0 41.677 35.101 75.462 78.401 75.462h89.9c43.3-0.001 78.402-33.785 78.402-75.462v0zM108.544 478.447h29.024v-261.214h-29.024v261.214zM1024.252 117.464c0-41.677-35.101-75.462-78.401-75.462h-89.9c-43.3 0-78.401 33.785-78.401 75.462v0c0 41.677 35.101 75.462 78.401 75.462h89.9c43.3-0.001 78.401-33.785 78.401-75.462v0zM886.389 478.447h29.024v-261.214h-29.024v261.214zM497.294 661.862h29.024v-116.096h-29.024v116.096zM635.156 117.464c0-41.677-35.101-75.462-78.401-75.462h-89.9c-43.3 0-78.401 33.785-78.401 75.462v0c0 41.677 35.101 75.462 78.401 75.462h89.9c43.3-0.001 78.401-33.785 78.401-75.462v0zM504.549 478.447h14.511v-261.214h-14.511v261.214zM497.294 478.447h29.024v-261.214h-29.024v261.214zM105.090 526.175h813.778v-29.024h-813.778v29.024z" />
<glyph unicode="&#xe902;" glyph-name="organization" d="M1024.252 553.484h-1024.547l512.274 350.13zM109.209 508.536h89.558v-447.788h-89.558v447.788zM304.208 508.536h89.558v-447.788h-89.558v447.788zM630.193 508.536h89.558v-447.788h-89.558v447.788zM825.191 508.536h89.558v-447.788h-89.558v447.788zM75.359 39.968h873.241v-89.646h-873.241v89.646zM75.974-68.389h872.011v-24.449h-872.011v24.449zM-0.295 637.404h1024.547v-83.92h-1024.547v83.92z" />
<glyph unicode="&#xe903;" glyph-name="info" d="M875.934 133.246v69.786l-56.797 8.442c-2.018 6.027-4.45 11.864-7.254 17.482l34.201 46.141-49.347 49.347-46.141-34.201c-5.618 2.805-11.455 5.236-17.482 7.254l-8.441 56.796h-69.786l-8.442-56.796c-6.027-2.018-11.863-4.45-17.482-7.254l-46.141 34.201-49.346-49.347 34.2-46.141c-2.805-5.619-5.236-11.455-7.254-17.482l-56.796-8.441v-69.786l56.796-8.442c2.018-6.027 4.45-11.864 7.254-17.482l-34.2-46.141 49.346-49.347 46.141 34.201c5.618-2.805 11.455-5.236 17.482-7.254l8.442-56.796h69.786l8.441 56.796c6.027 2.018 11.864 4.45 17.482 7.254l46.141-34.201 49.347 49.347-34.201 46.141c2.805 5.618 5.236 11.455 7.254 17.482l56.797 8.441zM752.754 168.139c0-34.779-28.195-62.974-62.974-62.974s-62.974 28.195-62.974 62.974 28.195 62.974 62.974 62.974c34.779 0 62.974-28.194 62.974-62.974zM344.936 690.761c-60.104-5.747-113.486 38.305-119.232 98.395s38.319 113.461 98.422 119.21c60.104 5.747 113.486-38.305 119.232-98.395s-38.319-113.461-98.422-119.21zM453.771 158.191c0 33.375 7.691 64.951 21.383 93.064-22.392 111.848-13.316 307.466-13.458 358.804-0.027 9.535-3.043 17.684-8.242 24.276-12.176 26.344-38.894 43.399-68.062 40.609-37.447-3.581-230.904-126.736-224.894-189.593 3.46-36.181 69.576-16.476 132.213 7.448-4.51-77.13-27.298-602.686 199.777-457.012-24.389 34.621-38.717 76.838-38.717 122.405z" />
<glyph unicode="&#xe904;" glyph-name="hospital" d="M368.728 496.87h117.184v-117.184h-117.184v117.184zM541.943 496.87h117.184v-117.184h-117.184v117.184zM368.728 337.298h117.184v-117.184h-117.184v117.184zM541.943 337.298h117.184v-117.184h-117.184v117.184zM590.273 602.209v42.255h-54.328v54.328h-42.255v-54.328h-54.328v-42.255h54.328v-54.328h42.255v54.328zM124.498 456.659h56.929v-56.929h-56.929v56.929zM208.644 456.659h56.929v-56.929h-56.929v56.929zM124.498 377.269h56.929v-56.929h-56.929v56.929zM208.644 377.269h56.929v-56.929h-56.929v56.929zM124.498 297.88h56.929v-56.929h-56.929v56.929zM208.644 297.88h56.929v-56.929h-56.929v56.929zM124.498 218.49h56.929v-56.929h-56.929v56.929zM208.644 218.49h56.929v-56.929h-56.929v56.929zM761.225 456.659h56.929v-56.929h-56.929v56.929zM845.371 456.659h56.929v-56.929h-56.929v56.929zM761.225 377.269h56.929v-56.929h-56.929v56.929zM845.371 377.269h56.929v-56.929h-56.929v56.929zM761.225 297.88h56.929v-56.929h-56.929v56.929zM845.371 297.88h56.929v-56.929h-56.929v56.929zM761.225 218.49h56.929v-56.929h-56.929v56.929zM845.371 218.49h56.929v-56.929h-56.929v56.929zM960.663 129.639v387.8h-225.852v234.369h-445.299v-234.368h-223.381v-387.8h-65.008v-76.272h1024.547v76.272h-65.008zM738.015 482.286h187.495v-351.552h-187.495v351.552zM324.668 716.654h374.989v-585.92h-374.989v585.92zM101.287 482.286h187.495v-351.552h-187.495v351.552z" />
<glyph unicode="&#xe905;" glyph-name="user" d="M474.844 361.535c-27.894-53.328-83.736-89.727-148.088-89.727s-120.195 36.399-148.088 89.727c-106.335-54.048-179.193-164.475-179.193-291.926h654.561c0 127.452-72.859 237.878-179.192 291.926zM499.16 510.463c0-95.217-77.188-172.406-172.406-172.406s-172.406 77.188-172.406 172.406c0 95.217 77.188 172.406 172.406 172.406s172.406-77.188 172.406-172.406zM681.341 206.044h342.682c0 109.663-62.689 204.679-154.182 251.183-24.001-45.885-72.049-77.205-127.421-77.205s-103.42 31.319-127.421 77.205c-36.562-18.584-68.517-44.921-93.717-76.838 69.728-40.078 125.922-101.041 160.059-174.346zM890.763 585.369c0-81.928-66.415-148.343-148.343-148.343s-148.343 66.415-148.343 148.343c0 81.928 66.415 148.343 148.343 148.343s148.343-66.415 148.343-148.343z" />
<glyph unicode="&#xe906;" glyph-name="system" d="M910.502 935.507h-797.046c-62.822 0-113.75-48.948-113.75-109.329v-549.753c0-60.38 50.927-109.329 113.75-109.329h797.046c62.822 0 113.75 48.948 113.75 109.329v549.753c0.001 60.381-50.927 109.329-113.75 109.329zM936.785 341.617c0-46.061-42.232-83.4-94.328-83.4h-660.956c-52.096 0-94.328 37.34-94.328 83.4v419.372c0 46.061 42.232 83.4 94.328 83.4h660.956c52.096 0 94.328-37.34 94.328-83.4v-419.372zM288.727 203.371h446.506v-146.363h-446.506v146.363zM905.582 24.383c0-35.645-28.897-64.542-64.542-64.542h-658.12c-35.645 0-64.542 28.897-64.542 64.542v0c0 35.645 28.897 64.542 64.542 64.542h658.12c35.645 0 64.542-28.897 64.542-64.542v0zM799.934 780.903h-575.908c-45.393 0-82.191-29.252-82.191-65.335v-328.533c0-36.083 36.798-65.335 82.191-65.335h575.908c45.393 0 82.191 29.252 82.191 65.335v328.533c0 36.084-36.798 65.335-82.191 65.335z" />
<glyph unicode="&#xe907;" glyph-name="dictionary" d="M969.688 749.613v-610.6h-357.87l-38.738-23.354h-122.201l-38.737 23.354h-357.871v610.6h-54.565v-669.896h412.436l38.737-23.354h122.201l38.738 23.354h412.436v669.896zM80.92 156.669c0 1.943 1.099 3.846 3.187 5.697h-3.187v-5.697zM511.219 156.669v5.697h-3.186c2.086-1.851 3.186-3.754 3.186-5.697zM296.069 752.468c-118.824 0-215.149-14.819-215.149-33.101v-557h3.187c17.555 15.566 105.769 27.402 211.963 27.402s194.407-11.837 211.963-27.402h3.186v557c0.001 18.28-96.326 33.101-215.148 33.101zM471.126 212.183c0 14.874-78.375 26.932-175.056 26.932s-175.056-12.058-175.056-26.932v457.84c0 14.875 78.375 26.932 175.056 26.932s175.056-12.058 175.056-26.932v-457.84zM941.517 156.669v5.697h-3.186c2.087-1.851 3.186-3.754 3.186-5.697zM511.219 156.669c0 1.943 1.099 3.846 3.187 5.697h-3.187v-5.697zM726.367 752.468c-118.823 0-215.149-14.819-215.149-33.101v-557h3.187c17.555 15.566 105.769 27.402 211.963 27.402s194.407-11.837 211.963-27.402h3.186v557c0.001 18.28-96.324 33.101-215.148 33.101zM875.317 311.783h-297.899v33.101h297.899v-33.101zM875.317 400.603h-297.899v33.101h297.899v-33.101zM875.317 489.424h-297.899v33.1h297.899v-33.1zM875.317 578.246h-297.899v33.101h297.899v-33.101zM151.905 611.346h297.899v-33.1h-297.899v33.1zM151.905 522.525h297.899v-33.1h-297.899v33.1zM151.905 433.704h297.899v-33.101h-297.899v33.101zM151.905 344.882h297.899v-33.101h-297.899v33.101z" />
<glyph unicode="&#xe908;" glyph-name="reservation" d="M805.789 767.83h-49.502v-20.175c0-24.252-17.096-43.913-38.185-43.913s-38.185 19.661-38.185 43.913v20.175h-474.518v-20.175c0-24.252-17.096-43.913-38.185-43.913s-38.185 19.661-38.185 43.913v20.175h-49.502c-44.083 0-79.82-39.898-79.82-89.116v-542.285c0-49.217 35.736-89.116 79.82-89.116h550.32c-25.098 26.144-44.043 58.231-54.537 93.938h-107.194v113.068h103.045c11.209 52.155 40.166 97.708 80.245 130.040v53.249h113.068v-4.593c10.032 1.342 20.267 2.048 30.667 2.048 32.132 0 62.712-6.626 90.467-18.566v262.216c0.001 49.219-35.736 89.118-79.819 89.118zM214.603 141.249h-113.068v113.068h113.068v-113.068zM214.603 324.539h-113.068v113.068h113.068v-113.068zM214.603 507.83h-113.068v113.068h113.068v-113.068zM397.893 141.249h-113.068v113.068h113.068v-113.068zM397.893 324.539h-113.068v113.068h113.068v-113.068zM397.893 507.83h-113.068v113.068h113.068v-113.068zM581.183 324.539h-113.068v113.068h113.068v-113.068zM581.183 507.83h-113.068v113.068h113.068v-113.068zM764.473 507.83h-113.068v113.068h113.068v-113.068zM167.211 728.475c14.259 0 25.818 13.294 25.818 29.691v43.892c0 16.397-11.559 29.691-25.818 29.691s-25.818-13.294-25.818-29.691v-43.892c0-16.397 11.559-29.691 25.818-29.691zM718.101 728.475c14.259 0 25.818 13.294 25.818 29.691v43.892c0 16.397-11.559 29.691-25.818 29.691s-25.818-13.294-25.818-29.691v-43.892c0-16.397 11.559-29.691 25.818-29.691zM936.593 386.197c-4.328 3.4-8.782 6.65-13.352 9.737-1.524 1.030-3.060 2.041-4.61 3.033-3.099 1.986-6.248 3.901-9.447 5.74-6.397 3.679-12.988 7.056-19.754 10.116-3.383 1.53-6.81 2.979-10.279 4.347-1.734 0.683-3.478 1.347-5.233 1.989-5.264 1.928-10.618 3.666-16.054 5.21-1.813 0.515-3.634 1.007-5.464 1.479-5.49 1.412-11.060 2.627-16.702 3.636-13.164 2.351-26.717 3.578-40.557 3.578s-27.393-1.227-40.557-3.578c-3.761-0.672-7.49-1.436-11.185-2.288-11.086-2.56-21.863-5.922-32.267-10.025-3.468-1.368-6.895-2.817-10.279-4.347-1.691-0.765-3.373-1.55-5.042-2.354-3.339-1.609-6.632-3.296-9.879-5.060-1.624-0.883-3.235-1.783-4.834-2.703-3.199-1.839-6.348-3.753-9.447-5.74s-6.146-4.047-9.141-6.176-5.936-4.329-8.82-6.596c-10.099-7.936-19.513-16.702-28.142-26.196-2.466-2.713-4.867-5.485-7.201-8.313-10.506-12.73-19.663-26.614-27.254-41.433-0.844-1.646-1.668-3.305-2.472-4.974-8.044-16.694-14.123-34.512-17.939-53.156-3.052-14.915-4.655-30.358-4.655-46.173 0-43.497 12.121-84.162 33.169-118.803 0.957-1.574 1.932-3.137 2.926-4.687 4.966-7.747 10.387-15.175 16.224-22.247 2.335-2.829 4.736-5.6 7.201-8.313 3.698-4.068 7.54-8.004 11.519-11.797 5.305-5.058 10.853-9.864 16.622-14.399 2.885-2.267 5.826-4.467 8.82-6.596 1.497-1.065 3.008-2.112 4.531-3.141 3.048-2.059 6.146-4.047 9.296-5.959s6.348-3.753 9.595-5.516c4.87-2.646 9.845-5.118 14.921-7.413 3.383-1.53 6.81-2.979 10.279-4.347 10.405-4.103 21.182-7.465 32.267-10.025 3.695-0.853 7.425-1.616 11.185-2.288 13.164-2.351 26.717-3.578 40.557-3.578s27.393 1.227 40.557 3.578c5.641 1.007 11.211 2.222 16.702 3.636 1.83 0.471 3.651 0.964 5.464 1.479 5.436 1.543 10.791 3.284 16.054 5.21 1.754 0.642 3.5 1.306 5.233 1.989 3.468 1.368 6.895 2.817 10.279 4.347 6.767 3.059 13.358 6.438 19.754 10.116 1.599 0.92 3.187 1.858 4.762 2.815 3.15 1.913 6.248 3.901 9.296 5.959 4.571 3.088 9.024 6.336 13.352 9.737 21.64 17.005 40.142 37.823 54.493 61.443 21.048 34.642 33.169 75.307 33.169 118.803 0.002 73.154-34.282 138.301-87.659 180.248zM795.141 43.973c-89.458 0-161.979 72.52-161.979 161.979s72.52 161.979 161.979 161.979 161.979-72.52 161.979-161.979c0-89.459-72.52-161.979-161.979-161.979zM795.042 342.428c-11.345 0-20.54-9.086-20.54-20.296v-142.411c0-11.209 9.197-20.296 20.54-20.296s20.54 9.086 20.54 20.296v142.411c0.001 11.208-9.196 20.296-20.54 20.296zM784.768 198.117l-61.453-35.479c-9.825-5.672-13.19-18.234-7.519-28.059s18.234-13.19 28.060-7.519l61.454 35.479c9.825 5.672 13.19 18.234 7.519 28.059-5.674 9.825-18.237 13.19-28.061 7.519z" />
<glyph unicode="&#xe909;" glyph-name="company" d="M470.796 770.615h152.030v-152.030h-152.030v152.030zM695.518 770.615h152.030v-152.030h-152.030v152.030zM470.796 566.81h152.030v-152.030h-152.030v152.030zM695.518 566.81h152.030v-152.030h-152.030v152.030zM470.796 359.787h152.030v-152.030h-152.030v152.030zM695.518 359.787h152.030v-152.030h-152.030v152.030zM153.937 473.199h73.857v-73.857h-73.857v73.857zM263.107 473.199h73.857v-73.857h-73.857v73.857zM153.937 370.202h73.857v-73.857h-73.857v73.857zM263.107 370.202h73.857v-73.857h-73.857v73.857zM153.937 267.205h73.857v-73.857h-73.857v73.857zM263.107 267.205h73.857v-73.857h-73.857v73.857zM153.937 164.208h73.857v-73.857h-73.857v73.857zM263.107 164.208h73.857v-73.857h-73.857v73.857zM945.739 48.937v807.181h-577.716v-304.062h-289.807v-503.12h-78.512v-98.953h1024.547v98.953h-78.512zM413.633 810.508h486.497v-760.153h-486.497v760.153zM123.827 506.446h243.249v-456.091h-243.249v456.091z" />
<glyph unicode="&#xe90a;" glyph-name="product" d="M1023.023 783.184l1.761 0.77-490.655 146.503-533.892-146.503v-537.425l510.583-307.571v-0.975l0.81 0.487 0.81-0.487v0.975l510.583 307.571v536.656zM510.569 596.56l-186.591 77.681 437.864 155.302 168.256-52.122-419.529-180.86zM551.619 894.663l132.813-41.142-432.74-149.187-151.799 63.196 451.726 127.133zM469.621 21.633l-420.197 245.185v440.528l420.197-185.872v-499.841zM972.975 272.052l-425.182-250.313v505.098l425.182 190.967v-445.752z" />
<glyph unicode="&#xe90b;" glyph-name="medicine" d="M745.458 938.956h-466.958c-32.048 0-58.027-31.245-58.027-69.79v-69.79h583.011v69.79c0 38.543-25.979 69.79-58.026 69.79zM151.445 593.189v-554.443c0-44.803 36.234-81.124 80.929-81.124h559.208c44.696 0 80.929 36.321 80.929 81.124v554.443h-721.067zM690.065 208.625h-111.304v-111.303h-133.564v111.303h-111.303v133.564h111.303v111.303h133.564v-111.303h111.304v-133.564zM872.514 616.351h-721.067l75.782 150.3h569.504z" />
<glyph unicode="&#xe90c;" glyph-name="log" d="M764.971 149.065l-106.954-106.953h106.954zM764.971 897.979h-669.809v-855.867h357.373l12.906 51.623 299.53 299.53v504.714zM162.123 153.747c-20.551 0-37.212 16.66-37.212 37.212s16.66 37.212 37.212 37.212c20.551 0 37.212-16.66 37.212-37.212s-16.659-37.212-37.212-37.212zM162.123 339.806c-20.551 0-37.212 16.66-37.212 37.212s16.66 37.212 37.212 37.212c20.551 0 37.212-16.66 37.212-37.212s-16.659-37.212-37.212-37.212zM162.123 525.863c-20.551 0-37.212 16.66-37.212 37.212s16.66 37.212 37.212 37.212c20.551 0 37.212-16.66 37.212-37.212s-16.659-37.212-37.212-37.212zM162.123 711.922c-20.551 0-37.212 16.66-37.212 37.212s16.66 37.212 37.212 37.212c20.551 0 37.212-16.66 37.212-37.212s-16.659-37.212-37.212-37.212zM171.953 749.133c0-19.574-15.868-35.442-35.442-35.442h-82.7c-19.574 0-35.442 15.868-35.442 35.442v0c0 19.574 15.868 35.442 35.442 35.442h82.698c19.575 0 35.443-15.868 35.443-35.442v0zM171.953 563.075c0-19.574-15.868-35.442-35.442-35.442h-82.7c-19.574 0-35.442 15.868-35.442 35.442v0c0 19.574 15.868 35.442 35.442 35.442h82.698c19.575 0 35.443-15.867 35.443-35.442v0zM171.953 377.017c0-19.574-15.868-35.442-35.442-35.442h-82.7c-19.574 0-35.442 15.868-35.442 35.442v0c0 19.574 15.868 35.442 35.442 35.442h82.698c19.575 0 35.443-15.868 35.443-35.442v0zM171.953 190.959c0-19.574-15.868-35.442-35.442-35.442h-82.7c-19.574 0-35.442 15.868-35.442 35.442v0c0 19.574 15.868 35.442 35.442 35.442h82.698c19.575 0 35.443-15.867 35.443-35.442v0zM490.284 91.213l351.663 351.663 94.725-94.725-351.663-351.663-94.725 94.725zM851.542 452.461l7.118 7.118 94.725-94.725-7.118-7.118-94.725 94.725zM999.796 439.228l-66.763 66.763c-7.722 7.722-20.241 7.722-27.963 0l-37.847-37.847 94.725-94.725 37.847 37.847c7.722 7.722 7.722 20.241 0 27.963zM497.784-32.283l11.928 2.981-45.209 45.209-2.982-11.928zM575.735-12.796l-94.725 94.725-16.506-66.023 45.209-45.209zM457.994-10.13l-8.56-34.241 34.241 8.561z" />
<glyph unicode="&#xe90d;" glyph-name="arrow" d="M241.078 422.607l266.678 275.106 275.106-266.678-266.678-275.106-275.106 266.678z" />
<glyph unicode="&#xe90e;" glyph-name="beian" d="M604.351 307.201l-94.358 94.358 350.302 350.302 94.358-94.358-350.302-350.302zM964.211 667.059l-94.358 94.358 7.091 7.091 94.358-94.358-7.091-7.091zM1017.52 748.236l-66.504 66.504c-7.692 7.692-20.164 7.692-27.855 0l-37.702-37.702 94.359-94.359 37.702 37.702c7.693 7.693 7.693 20.164 0 27.855zM529.334 281.519l65.767 16.442-94.358 94.359-19.413-77.648 36.123-36.123zM469.288 266.508l34.108 8.526-25.581 25.582zM788.086 191.626c0-46.583-38.704-84.346-86.448-84.346h-404.375c-47.744 0-86.448 37.762-86.448 84.346v343.323c0 46.583 38.704 84.346 86.448 84.346h202.188v75.296h-254.931c-60.199 0-109-48.869-109-109.154v-444.299c0-60.283 48.801-109.153 109-109.153h509.862c60.198 0 109 48.869 109 109.153v225.103h-75.296v-174.615zM75.961 249.601v410.245c0 46.583 38.704 84.346 86.448 84.346h333.303v75.296h-386.047c-60.199 0-109-48.869-109-109.153v-511.224c0-60.283 48.801-109.153 109-109.153h6.535v88.372c-24.177 14.953-40.239 41.272-40.239 71.268z" />
<glyph unicode="&#xe90f;" glyph-name="merchandise" d="M743.148 510.333v226.156c0 123.193-103.592 223.060-231.381 223.060s-231.381-99.867-231.381-223.060v-226.298c-26.435-9.329-45.384-34.517-45.384-64.146 0-37.565 30.452-68.018 68.017-68.018s68.018 30.452 68.018 68.018c0 30.858-20.557 56.901-48.718 65.224v200.507c0 109.766 84.818 198.748 189.446 198.748s189.446-88.982 189.446-198.748v-200.627c-27.946-8.454-48.298-34.397-48.298-65.103 0-37.565 30.452-68.018 68.018-68.018s68.018 30.452 68.018 68.018c0 29.782-19.15 55.078-45.803 64.286zM345.613 446.047c0-23.523-19.069-42.592-42.592-42.592s-42.592 19.069-42.592 42.592c0 23.523 19.069 42.592 42.592 42.592s42.592-19.069 42.592-42.592zM720.933 403.455c-23.523 0-42.592 19.069-42.592 42.592s19.069 42.592 42.592 42.592c23.523 0 42.592-19.069 42.592-42.592s-19.069-42.592-42.592-42.592zM355.888 685.684h313.495v-66.141h-313.495v66.141zM831.107 685.684h-57.499v-66.141h9.442c55.915 0 101.244-45.64 101.244-101.936v-379.202h-744.631v379.201c0 56.298 45.329 101.936 101.244 101.936h10.756v66.141h-58.815c-65.829 0-119.193-54.306-119.193-121.295v-507.545c0-66.99 53.365-121.295 119.193-121.295h638.258c65.829 0 119.193 54.306 119.193 121.295v507.546c0 66.989-53.365 121.295-119.193 121.295zM783.049 1.692h-542.142c-53.605 0-97.453 41.953-100.986 95.022h744.116c-3.535-53.070-47.381-95.022-100.986-95.022z" />
<glyph unicode="&#xe910;" glyph-name="based" d="M430.212 522.552c253.359 0 430.054 64.202 430.054 143.362v85.997c0 79.156-176.695 143.359-430.054 143.359-253.345 0-401.366-64.203-401.366-143.359v-85.997c0-79.162 148.022-143.362 401.366-143.362v0zM378.173 179.535c-173.994 6.445-275.616 46.173-329.048 99.324-13.629-13.597-20.277-28.026-20.277-43.010v-114.692c0-79.161 148.022-143.308 401.366-143.308 25.36 0 50.044 0.8 74.299 2.042-65.096 46.8-111.533 117.617-126.341 199.646zM372.94 237.121c0.31 75.795 27.282 145.299 72.126 199.528-5.453-0.019-10.701-0.085-16.289-0.085-205.412 0-321.215 42.181-379.653 100.34-13.629-13.613-20.277-28.037-20.277-43.026v-114.682c0-72.933 126-133.088 344.092-142.074v0zM700.189 108.064c-34.641-34.641-88.251-37.198-119.739-5.71s-28.932 85.096 5.71 119.739l72.908 72.908-11.171 11.171-81.343-81.343c-36.667-36.667-35.863-96.917 1.794-134.575s97.908-38.46 134.575-1.794l81.343 81.343-11.171 11.171-72.907-72.909zM729.074 387.346l-81.343-81.343 136.368-136.368 81.343 81.343c36.667 36.667 35.863 96.917-1.794 134.575s-97.908 38.46-134.575 1.794zM830.164 276.050l-15.204-15.204-30.407 30.407-30.407-30.407-15.204 15.204 30.407 30.407-30.407 30.407 15.204 15.204 30.407-30.407 30.407 30.407 15.204-15.204-30.407-30.407 30.407-30.407zM715.998 531.293c-162.034 0-293.391-131.355-293.391-293.391s131.355-293.391 293.391-293.391 293.391 131.355 293.391 293.391-131.355 293.391-293.391 293.391zM715.998-8.48c-136.074 0-246.382 110.309-246.382 246.382s110.309 246.382 246.382 246.382 246.382-110.309 246.382-246.382-110.31-246.382-246.382-246.382z" />
<glyph unicode="&#xe911;" glyph-name="settlement" d="M688.51 374.269c-1.473 0.18-2.971 0.284-4.495 0.284v0.203h-137.774v28.577h137.774v0.203c20.247 0 36.662 16.414 36.662 36.663s-16.414 36.662-36.662 36.662v0.203h-112.266l130.71 229.612c0.095 0.162 0.196 0.316 0.29 0.48 10.745 18.872 4.157 42.883-14.717 53.628-18.872 10.745-42.883 4.157-53.628-14.717-0.093-0.163-0.174-0.329-0.265-0.493l-0.012 0.007-126.679-222.501-126.692 222.494c-0.091 0.164-0.172 0.33-0.265 0.493-10.745 18.872-34.756 25.462-53.628 14.717s-25.462-34.756-14.717-53.628c0.093-0.163 0.194-0.318 0.29-0.479l-0.012-0.007 130.723-229.606h-103.208v-0.203c-20.247 0-36.662-16.414-36.662-36.662s16.414-36.663 36.662-36.663v-0.203h132.571v-28.577h-132.571v-0.203c-1.523 0-3.020-0.104-4.495-0.284-18.126-2.217-32.167-17.653-32.167-36.378 0-20.248 16.414-36.663 36.662-36.663v-0.203h132.571v-134.304h0.203c0-20.247 16.414-36.662 36.662-36.662s36.662 16.414 36.662 36.662h0.203v134.305h137.774v0.203c20.247 0 36.662 16.414 36.662 36.663 0.001 18.725-14.041 34.16-32.166 36.377zM1013.71 345.501c0.007 0.033 0.014 0.065 0.021 0.099h-0.024c-0.503 28.535-23.777 51.515-52.432 51.515s-51.927-22.98-52.433-51.515h-0.171c-45.47-176.663-205.838-307.199-396.694-307.199-160.454 0-299.349 92.269-366.549 226.636l81.148-31.017c25.929-9.91 54.741 2.45 64.357 27.607s-3.609 53.585-29.537 63.494l-179.408 68.575c-6.144 2.349-12.45 3.433-18.625 3.406-0.195 0.002-0.388 0.014-0.584 0.014-28.655 0-51.927-22.98-52.433-51.515h-0.124c0.035-0.172 0.075-0.342 0.11-0.514-0.001-0.143-0.010-0.283-0.010-0.427h0.102c47.805-233.231 254.185-408.66 501.552-408.66s453.747 175.429 501.551 408.659h0.202c-0.001 0.282-0.017 0.561-0.021 0.841zM1013.73 550.4c-0.017 0.089-0.038 0.175-0.056 0.264 0.031 0.742 0.056 1.484 0.056 2.233h-0.535c-48.401 232.451-254.401 407.103-501.217 407.103s-452.815-174.651-501.218-407.103h-0.436c0-0.61 0.026-1.213 0.046-1.818-0.046-0.226-0.1-0.451-0.145-0.678h0.163c1.304-27.811 24.259-49.96 52.392-49.96s51.089 22.148 52.392 49.96h0.11c45.47 176.663 205.838 307.199 396.694 307.199 161.343 0 300.891-93.291 367.663-228.869l-68.196 26.066c-24.731 9.452-52.213-2.337-61.384-26.331s3.442-51.109 28.172-60.561l154.668-59.117c6.301-4.062 13.523-6.807 21.29-7.857 23.378-6.301 47.97 5.461 56.547 27.899 2.513 6.576 3.382 13.385 2.821 20.002 0.040 0.522 0.085 1.043 0.109 1.568h0.062z" />
<glyph unicode="&#xe912;" glyph-name="OA" d="M910.504 935.739h-797.047c-62.822 0-113.75-48.948-113.75-109.329v-549.755c0-60.38 50.927-109.328 113.75-109.328h175.27v-78.173h-105.808c-35.645 0-64.542-28.897-64.542-64.542s28.897-64.542 64.542-64.542h658.121c35.645 0 64.542 28.897 64.542 64.542s-28.897 64.542-64.542 64.542h-105.807v78.173h175.27c62.822 0 113.75 48.948 113.75 109.328v549.755c0 60.38-50.927 109.329-113.75 109.329zM936.787 341.847c0-46.061-42.233-83.4-94.328-83.4h-660.957c-52.097 0-94.328 37.34-94.328 83.4v419.373c0 46.061 42.233 83.4 94.328 83.4h660.957c52.096 0 94.328-37.34 94.328-83.4v-419.373zM325.69 740.607c-99.538 0-180.228-86.156-180.228-192.436s80.691-192.436 180.228-192.436 180.228 86.156 180.228 192.436-80.691 192.436-180.228 192.436zM325.69 419.689c-66.456 0-120.33 57.523-120.33 128.481s53.874 128.481 120.33 128.481 120.33-57.523 120.33-128.481-53.873-128.481-120.33-128.481zM800.47 355.734h67.68l-159.502 400.609h-49.725l-159.502-400.609h67.68l42.284 119.184h148.802l42.285-119.184zM637.211 553.356l46.573 131.274 46.573-131.274h-93.146z" />
<glyph unicode="&#xe913;" glyph-name="transaction" d="M999.803 663.655c-1.1 0-2.181-0.457-3.243-1.263-5.341-1.166-10.729-2.331-16.607-3.623-13.259-2.902-24.224-5.307-48.454-10.608-31.902-7.010-48.083-10.546-66.824-14.625-26.363-5.726-50.404 0.243-70.911 17.798-17.465 14.961-49.791 45.064-80.78 71.267-0.732 0.643-0.732 0.643-1.493 1.283-19.41 16.425-28.581 24.196-39.615 33.548-26.782 22.703-52.045 25.081-79.964 6.829-0.914-0.606-0.914-0.606-1.459-0.914-0.091-0.091-0.091-0.091-0.18-0.126-0.098-0.055-0.098-0.055-0.245-0.146-16.824-9.477-30.172-17.004-60.339-34.006-0.552-0.335-0.552-0.335-1.13-0.643-91.299-51.437-132.065-74.447-182.869-103.183-7.912-4.477-13.875-11.010-17.603-18.526-6.166-9.64-9.755-21.087-9.755-33.378 0-34.268 27.779-62.047 62.047-62.047 8.183 0 15.989 1.6 23.142 4.478 0.935 0.275 1.847 0.598 2.711 1.033 5.146 2.595 9.324 4.783 18.496 9.597 0.363 0.217 0.363 0.217 0.732 0.397 7.734 4.088 11.668 6.125 16.271 8.476 9.138 4.658 23.659 12.038 40.085 20.574l0.363 0.182c41.597 21.573 45.052 21.546 68.912 32.636 31.722 14.716 60.809-6.837 86.378-32.218 27.851-27.668 51.076-50.616 100.046-99.005 1.799-1.737 1.799-1.737 3.564-3.508 50.887-50.281 74.992-74.142 103.97-102.905 15.666-15.575 32.914-21.852 52.534-18.923 19.111 2.831 46.201 41.743 75.697 47.289l9.443 1.764c6.528 1.224 11.509 2.17 15.784 2.965 0.429-0.129 0.861-0.198 1.296-0.198 13.502 0 24.448 62.62 24.448 139.866-0.002 77.243-10.949 139.863-24.451 139.863zM691.433 447.466l-11.521 11.515c-27.181 27.215-42.358 42.358-59.054 59.054-20.233 20.241-38.396 23.588-64.022 11.858-8.167-3.717-14.87-6.827-29.286-13.497l-1.829-0.857c-32.271-14.934-47.874-22.062-66.706-30.229-15.358-6.675-29.621-11.244-43.577-13.559-48.3-7.86-101.81 27.271-119.692 77.001-19.022 52.84 0.515 108.484 49.212 140.212 19.989 13.008 37.14 23.337 72.586 44.058 8.070 4.723 16.482 9.508 26.782 15.206 2.378 1.31 8.928 4.94 15.875 8.745-32.3 20.025-66.517 23.225-103.97 9.605-44.249-16.001-87.581-38.638-138.559-70.946-26.999-17.15-55.49-23.002-83.221-15.078-25.933 7.435-46.411 14.227-91.844 29.921-0.125 0.027-0.125 0.027-0.217 0.062-7.281 2.524-12.736 4.414-17.646 6.096v-0.293c-0.197 0.031-0.395 0.050-0.593 0.050-13.502 0-24.448-72.513-24.448-161.961s10.945-161.961 24.448-161.961c0.506 0 1.007 0.115 1.505 0.315 8.642-3.024 17.305-6.035 31.582-10.996 0.307 0.675 0.639 1.356 0.065-0.002 0.004 0.007 0.007 0.012 0.012 0.021 17.459 35.75 45.825 59.541 85.030 68.858 62.799 14.994 122.864-14.012 144.103-73.318-0.182 0.552 0.605-0.237 0.549-0.209 31.505-13.197 53.475-36.018 65.785-68.044 0.062-0.182 0.914-1.13 0.431-0.914 33.277-14.020 55.943-38.549 68.044-73.046-0.062 0.153 0.581-0.578 0-0.335 51.014-20.875 79.47-67.953 74.596-123.233l0.125-0.12c9.534-10.601 14.626-15.935 20.632-21.181 12.736-11.054 32.209-8.711 42.357 5.126 8.225 11.273 7.464 26.658-2.104 37.111-8.474 9.264-15.875 17.032-31.115 32.761-1.006 1.033-1.006 1.033-2.044 2.099-8.376 8.654-12.888 13.322-17.918 18.622-3.787 4.020-6.211 6.831-8.189 9.881-0.389 0.371-0.748 0.77-1.107 1.17-4.465 3.927-7.297 9.666-7.297 16.080 0 11.833 9.593 21.427 21.427 21.427 6.398 0 12.123-2.819 16.049-7.265 0.799-0.715 1.563-1.468 2.249-2.294 3.363-2.466 6.549-5.381 10.635-9.474 30.935-31.233 47.205-47.749 65.613-66.608 9.443-9.757 21.997-12.527 33.548-7.559 11.395 4.903 18.009 15.511 17.673 28.734-0.209 7.616-3.473 14.2-10.692 21.699-1.158 1.22-1.158 1.22-2.316 2.405-0.369 0.363-0.369 0.363-0.732 0.761-27.090 28.311-39.401 41.325-54.395 57.597-0.914 0.977-0.914 0.977-2.070 2.225-3.148 3.387-7.552 8.369-7.552 8.369s-9.018 10.188-9.018 17.369c0 11.747 9.523 21.27 21.27 21.27 8.93 0 22.148-13.46 23.274-14.555 28.916-28.1 53.083-51.808 76.030-74.721 11.731-11.793 25.317-14.814 37.292-8.991 19.202 9.297 22.459 33.639 5.824 50.95-2.894 3.021-2.894 3.021-5.824 6.061-0.452 0.46-0.452 0.46-0.878 0.92-25.993 27.056-37.879 39.61-52.079 55.273-1.846 2.011-12.248 16.531-12.248 22.867 0 11.833 9.593 21.427 21.427 21.427 4.579 0 8.813-1.448 12.294-3.895 2.852-1.885 5.583-4.399 8.178-7.392 1.618-1.891 1.862-2.161 2.009-2.316 15.267-14.536 27.731-26.818 53.815-52.749 1.040-1.006 1.040-1.006 2.044-2.015 2.986-2.986 2.986-2.986 5.97-5.935 14.145-14.020 32.641-14.634 44.645-2.323 11.822 12.129 11.123 30.87-2.254 44.221-33.558 33.487-63.27 63.165-118.97 118.872zM235.751 384.68c0-27.031-21.913-48.944-48.944-48.944s-48.944 21.913-48.944 48.944c0 27.031 21.913 48.944 48.944 48.944s48.944-21.913 48.944-48.944zM309.846 302.997c0-27.031-21.913-48.944-48.944-48.944s-48.944 21.913-48.944 48.944c0 27.031 21.913 48.944 48.944 48.944s48.944-21.913 48.944-48.944zM391.528 216.010c0-27.031-21.913-48.944-48.944-48.944s-48.944 21.913-48.944 48.944c0 27.031 21.913 48.944 48.944 48.944s48.944-21.913 48.944-48.944zM472.151 132.221c0-27.031-21.913-48.944-48.944-48.944s-48.944 21.913-48.944 48.944c0 27.031 21.913 48.944 48.944 48.944s48.944-21.913 48.944-48.944z" />
<glyph unicode="&#xe914;" glyph-name="supervision" d="M319.418 496.685h102.659v-295.64h-102.659v295.64zM152.476 359.389h102.659v-158.344h-102.659v158.344zM820.245 790.009h102.659v-588.963h-102.659v588.963zM486.36 622.459h102.659v-421.414h-102.659v421.414zM653.303 693.731h102.659v-492.685h-102.659v492.685zM980.146 151.236v0.46h-891.31v594.207h-0.459c0 24.36-19.746 44.106-44.106 44.106s-44.106-19.746-44.106-44.106h-0.46v-683.339l980.441 0.46c24.36 0 44.106 19.746 44.106 44.106s-19.747 44.106-44.106 44.106zM152.504 474.878l219.908 219.908 27.489-27.489-219.908-219.908-27.489 27.489zM438.652 662.681l219.908 219.908 27.489-27.489-219.908-219.908-27.489 27.489zM371.299 694.617l103.863-28.465-8.505-31.034-103.863 28.465 8.505 31.034zM585.063 853.037h71.435v-71.435l25.275 3.464 6.927 100.173-100.173-6.927z" />
<glyph unicode="&#xe915;" glyph-name="announcement" d="M873.827 577.545h-25.877l-270.849 270.849c6.183 10.89 9.73 23.472 9.73 36.89 0 41.339-33.512 74.852-74.851 74.852s-74.852-33.513-74.852-74.852c0-13.418 3.548-26 9.73-36.89l-270.849-270.849h-25.876c-65.837 0-119.209-52.261-119.209-116.73v-407.949c0-64.468 53.371-116.73 119.209-116.73h723.694c65.837 0 119.208 52.261 119.208 116.73v407.949c0 64.468-53.372 116.73-119.208 116.73zM492.199 813.093c6.303-1.724 12.93-2.661 19.781-2.661 6.849 0 13.477 0.938 19.78 2.661l235.548-235.548h-510.656l235.548 235.548zM934.725 89.953c0-52.746-1.449-95.505-104.759-95.505h-635.973c-104.788 0-104.76 42.759-104.76 95.505v333.776c0 52.746 4.428 94.181 104.76 95.505h635.973c104.682 0 104.759-42.759 104.759-95.505v-333.776zM755.398 433.125h-346.684c-21.631 0-39.166-16.991-39.166-37.948s17.535-37.948 39.166-37.948h346.684c21.63 0 39.166 16.991 39.166 37.948s-17.534 37.948-39.166 37.948zM305.289 395.178c0-20.958-16.99-37.948-37.948-37.948s-37.948 16.99-37.948 37.948c0 20.958 16.99 37.948 37.948 37.948s37.948-16.99 37.948-37.948zM305.289 256.842c0-20.958-16.99-37.948-37.948-37.948s-37.948 16.99-37.948 37.948c0 20.958 16.99 37.948 37.948 37.948s37.948-16.99 37.948-37.948zM755.398 294.79h-346.684c-21.631 0-39.166-16.991-39.166-37.948s17.535-37.948 39.166-37.948h346.684c21.63 0 39.166 16.991 39.166 37.948s-17.534 37.948-39.166 37.948zM305.289 118.506c0-20.958-16.99-37.948-37.948-37.948s-37.948 16.99-37.948 37.948c0 20.958 16.99 37.948 37.948 37.948s37.948-16.99 37.948-37.948zM755.398 156.453h-346.684c-21.631 0-39.166-16.991-39.166-37.948s17.535-37.948 39.166-37.948h346.684c21.63 0 39.166 16.991 39.166 37.948 0.001 20.959-17.534 37.948-39.166 37.948z" />
<glyph unicode="&#xe916;" glyph-name="bargain-drug" d="M422.716 713.132c0 5.232 0.234 10.427 0.686 15.573h-360.328l-63.369-125.681h459.787c-23.466 32.823-36.776 70.303-36.776 110.106zM495.57 728.708c-0.854-5.845-1.298-11.778-1.298-17.782 0-34.295 14.298-66.226 38.898-92.997l0.41-0.34 1.605-14.562h67.475l-63.369 125.681h-43.72zM495.448 452.456c-3.291 3.291-17.177 127.58-17.177 127.58-1.112 1.199-2.208 2.408-3.291 3.624h-475.275v-463.624c0-37.465 30.298-67.835 67.673-67.835h467.608c37.375 0 67.673 30.371 67.673 67.835v371.728c-12.651-6.17-104.147-42.37-107.211-39.306zM450.096 262.086h-93.073v-93.072h-111.685v93.072h-93.072v111.687h93.072v93.072h111.685v-93.072h93.073v-111.687zM545.118 521.185l57.543 31.263v31.211h-65.34zM544.939 814.43c0 0.393-0.015 0.781-0.022 1.173-19.162-17.464-33.635-37.621-42.101-59.53h42.124v58.358zM427.984 756.073c10.958 44.145 38.5 83.943 77.622 115.656-2.976 0.686-6.045 1.058-9.188 1.058h-390.47c-26.798 0-48.521-26.127-48.521-58.358v-58.358h370.557zM822.316 690.822v0.101c10.113 0 18.312 8.198 18.312 18.312s-8.199 18.312-18.312 18.312v0.101h-56.076l65.288 114.689c0.047 0.081 0.098 0.159 0.144 0.239 5.367 9.426 2.075 21.42-7.351 26.787s-21.42 2.076-26.787-7.351c-0.047-0.082-0.087-0.165-0.132-0.246l-0.006 0.003-63.276-111.137-63.281 111.134c-0.045 0.082-0.086 0.166-0.132 0.246-3.467 6.089-9.701 9.615-16.22 9.902-3.572 0.159-7.23-0.651-10.567-2.552-0.35-0.2-0.69-0.412-1.024-0.629-8.633-5.63-11.494-17.082-6.327-26.158 0.046-0.082 0.097-0.16 0.144-0.239l-0.006-0.003 65.295-114.686h-51.551v-0.101c-10.113 0-18.312-8.199-18.312-18.312s8.199-18.312 18.312-18.312v-0.101h66.218v-14.274h-66.218v-0.101c-0.761 0-1.51-0.052-2.245-0.141-9.054-1.108-16.067-8.818-16.067-18.171 0-10.114 8.199-18.312 18.312-18.312v-0.101h66.218v-67.085h0.1c0-10.114 8.198-18.312 18.312-18.312s18.312 8.198 18.312 18.312h0.101v67.085h68.817v0.101c10.113 0 18.312 8.198 18.312 18.312 0 9.353-7.013 17.063-16.067 18.171-0.736 0.090-1.484 0.141-2.245 0.141v0.101h-68.817v14.274h68.815zM732.572 929.409c-161.091 0-291.682-97.496-291.682-217.762 0-45.975 19.084-88.622 51.661-123.767 0 0 12.914-115.575 15.973-118.636s101.055 44.897 101.055 44.897c37.374-12.995 79.046-20.257 122.992-20.257 161.091 0 291.681 97.496 291.681 217.762s-130.588 217.763-291.679 217.763zM732.572 526.546c-36.408 0-71.064 5.264-102.571 14.744l-14.249 5.066-90.173-48.992-12.487 113.27-0.445 0.368c-26.622 28.972-42.095 63.53-42.095 100.643 0 102.228 117.311 185.099 262.019 185.099s262.017-82.871 262.017-185.099-117.31-185.098-262.017-185.098z" />
<glyph unicode="&#xe917;" glyph-name="catalog" d="M127.386 764.244c0-33.974-27.542-61.516-61.516-61.516s-61.516 27.542-61.516 61.516c0 33.974 27.542 61.516 61.516 61.516s61.516-27.542 61.516-61.516zM295.045 702.728h561.998c35.065 0 63.491 27.541 63.491 61.516s-28.426 61.516-63.491 61.516h-561.998c-35.065 0-63.491-27.541-63.491-61.516s28.425-61.516 63.491-61.516zM127.386 470.828c0-33.974-27.542-61.516-61.516-61.516s-61.516 27.542-61.516 61.516c0 33.974 27.542 61.516 61.516 61.516s61.516-27.542 61.516-61.516zM729.708 532.344h-434.664c-35.065 0-63.491-27.541-63.491-61.516s28.425-61.516 63.491-61.516h268.59c36.239 60.593 95.688 105.692 166.073 123.032zM127.386 177.412c0-33.974-27.542-61.516-61.516-61.516s-61.516 27.542-61.516 61.516c0 33.974 27.542 61.516 61.516 61.516s61.516-27.542 61.516-61.516zM295.045 238.928c-35.065 0-63.491-27.541-63.491-61.516s28.425-61.516 63.491-61.516h280.572c-25.394 35.535-42.328 77.525-47.879 123.032h-232.693zM872.458 290.956c0 20.308-7.185 37.646-21.554 52.019-14.367 14.369-31.711 21.554-52.019 21.554s-37.646-7.188-52.016-21.554c-14.369-14.372-21.554-31.711-21.554-52.019s7.185-37.648 21.554-52.016c14.369-14.372 31.708-21.554 52.016-21.554s37.652 7.182 52.019 21.554c14.369 14.367 21.554 31.708 21.554 52.016v0zM1019.603 322.281v-63.802c0-2.295-0.769-4.501-2.301-6.606-1.53-2.11-3.448-3.352-5.745-3.738l-53.167-8.048c-3.64-10.344-7.377-19.063-11.21-26.151 6.706-9.582 16.957-22.8 30.751-39.659 1.918-2.3 2.874-4.696 2.874-7.188 0-2.488-0.864-4.694-2.586-6.609-5.175-7.087-14.658-17.434-28.451-31.037-13.794-13.606-22.799-20.405-27.014-20.405-2.3 0-4.791 0.862-7.472 2.586l-39.661 31.037c-8.432-4.405-17.147-8.046-26.151-10.92-3.067-26.055-5.845-43.872-8.336-53.454-1.34-5.362-4.789-8.046-10.347-8.046h-63.799c-2.681 0-5.032 0.814-7.041 2.441-2.011 1.63-3.114 3.69-3.304 6.181l-8.046 52.879c-9.388 3.067-18.009 6.612-25.865 10.634l-40.523-30.751c-1.915-1.725-4.311-2.586-7.185-2.586-2.681 0-5.077 1.054-7.185 3.161-24.141 21.842-39.949 37.937-47.42 48.284-1.342 1.915-2.013 4.12-2.013 6.606 0 2.301 0.766 4.504 2.301 6.612 2.871 4.025 7.758 10.394 14.655 19.113 6.899 8.717 12.072 15.468 15.522 20.259-5.175 9.581-9.102 19.063-11.786 28.451l-52.591 7.761c-2.491 0.383-4.502 1.58-6.036 3.59-1.532 2.013-2.298 4.266-2.298 6.757v63.799c0 2.298 0.766 4.504 2.298 6.609 1.535 2.108 3.354 3.352 5.462 3.735l53.453 8.048c2.681 8.813 6.418 17.626 11.207 26.438-7.663 10.923-17.914 24.141-30.749 39.661-1.918 2.298-2.874 4.597-2.874 6.897 0 1.916 0.862 4.119 2.586 6.61 4.981 6.899 14.417 17.196 28.309 30.894 13.888 13.699 22.942 20.548 27.158 20.548 2.491 0 4.981-0.957 7.472-2.874l39.659-30.749c8.429 4.405 17.149 8.046 26.154 10.92 3.064 26.058 5.842 43.874 8.334 53.455 1.34 5.364 4.789 8.046 10.347 8.046h63.799c2.684 0 5.030-0.814 7.042-2.444 2.011-1.627 3.114-3.688 3.304-6.178l8.046-52.88c9.39-3.067 18.009-6.609 25.865-10.632l40.813 30.749c1.725 1.724 4.021 2.586 6.897 2.586 2.491 0 4.884-0.957 7.185-2.874 24.716-22.801 40.52-39.083 47.42-48.857 1.342-1.532 2.010-3.64 2.010-6.324 0-2.298-0.765-4.501-2.297-6.609-2.877-4.024-7.758-10.395-14.657-19.111-6.897-8.719-12.069-15.47-15.519-20.262 4.979-9.58 8.91-18.966 11.781-28.163l52.594-8.046c2.491-0.386 4.504-1.582 6.033-3.595 1.531-2.003 2.299-4.255 2.299-6.747v0z" />
<glyph unicode="&#xe918;" glyph-name="drug-form" d="M547.944 271.386h-415.814v551.906c0 34.686-28.119 62.806-62.806 62.806s-62.805-28.119-62.805-62.806v-614.711c0-34.686 28.119-62.806 62.805-62.806h396.427c5.301 32.654 20.384 63.801 45.328 88.745l36.865 36.866zM902.372 145.776h11.966c34.686 0 62.806 28.119 62.806 62.806 0 3.751-0.348 7.418-0.979 10.988l-73.793-73.794zM328.098 338.717v123.906c0 26.5-25.562 47.984-57.095 47.984s-57.095-21.483-57.095-47.984v-123.906c0-26.5 114.191-26.5 114.191 0zM821.134 540.349v85.149c0 26.5-25.563 47.984-57.095 47.984s-57.095-21.483-57.095-47.984v-195.113l90.178 90.178c7.486 7.485 15.536 14.072 24.012 19.785zM574.615 335.128v463.426c0 26.5-25.563 47.984-57.095 47.984s-57.095-21.483-57.095-47.984v-463.425c0-26.501 114.191-26.501 114.191-0.001zM976.932 465.392c-53.002 53.002-137.806 54.134-189.413 2.526l-227.822-227.823c-51.608-51.608-50.477-136.411 2.526-189.414s137.806-54.134 189.413-2.526l227.823 227.822c51.608 51.609 50.477 136.412-2.527 189.415zM747.786 75.75c-48.758-48.758-124.211-52.355-168.531-8.037-44.32 44.32-40.722 119.773 8.036 168.532l101.461 101.461 160.495-160.495-101.461-101.461zM849.482 177.446v0zM929.804 311.265l-21.4-21.398-42.799 42.799-42.799-42.799-21.4 21.398 42.799 42.799-42.799 42.799 14.729 14.728 0.64-0.64v1.281l6.030 6.030 42.799-42.799 42.799 42.799 21.4-21.398-42.799-42.799 42.799-42.8z" />
<glyph unicode="&#xe919;" glyph-name="interfaces" d="M1012.531 726.010l-151.349 122.587c-10.449 8.465-24.544 8.378-31.483-0.188l-95.878-118.368-9.458 7.661c-10.449 8.465-24.72 8.161-31.875-0.671l-71.252-87.968c-4.814-5.94-5.175-14.23-1.721-21.594l-0.062 0.052 29.991-108.022-25.704-31.737c-7.277-8.985-7.101-21.573-0.268-30.307h-422.767c-63.416 0-114.825-51.409-114.825-114.824s51.409-114.824 114.825-114.824l502.154 0.168c39.634 0 71.765-32.13 71.765-71.765s-32.13-71.765-71.765-71.765h-701.582v-43.060h710.793c63.415 0 114.824 51.409 114.824 114.824s-51.409 114.825-114.824 114.825l-502.155-0.168c-39.634 0-71.765 32.13-71.765 71.765s32.13 71.765 71.765 71.765h465.784c10.402-7.527 24.994-5.688 33.173 4.411l25.708 31.736 111.829-6.85c7.924-1.851 15.955 0.225 20.768 6.167l71.25 87.965c7.155 8.837 4.485 22.857-5.963 31.319l-9.459 7.661 95.879 118.37c6.94 8.565 4.095 22.373-6.354 30.833zM883.764 757.106l-22.055-27.232c-4.060-5.010-11.416-5.783-16.43-1.724l-36.306 29.41c-5.014 4.060-5.786 11.414-1.724 16.427l22.055 27.232c4.061 5.010 11.413 5.785 16.429 1.724l36.307-29.41c5.014-4.061 5.786-11.414 1.724-16.427zM972.977 684.847l-22.055-27.229c-4.061-5.014-11.417-5.786-16.43-1.724l-36.309 29.404c-5.011 4.064-5.783 11.416-1.724 16.43l22.062 27.233c4.060 5.013 11.413 5.785 16.427 1.724l36.307-29.407c5.011-4.064 5.787-11.418 1.723-16.431z" />
<glyph unicode="&#xe91a;" glyph-name="order" d="M263.389 566.521c0-25.207-20.435-45.642-45.642-45.642s-45.642 20.435-45.642 45.642c0 25.207 20.435 45.642 45.642 45.642s45.642-20.435 45.642-45.642zM851.853 566.521c0-25.207-21.090-45.642-47.106-45.642h-416.968c-26.016 0-47.105 20.434-47.105 45.642v0c0 25.207 21.090 45.642 47.105 45.642h416.968c26.017 0 47.106-20.435 47.106-45.642v0zM263.389 382.323c0-25.207-20.435-45.642-45.642-45.642s-45.642 20.435-45.642 45.642c0 25.207 20.435 45.642 45.642 45.642s45.642-20.435 45.642-45.642zM851.853 382.323c0-25.207-21.090-45.642-47.106-45.642h-416.968c-26.016 0-47.105 20.434-47.105 45.642v0c0 25.207 21.090 45.642 47.105 45.642h416.968c26.017 0 47.106-20.434 47.106-45.642v0zM263.389 194.35c0-25.207-20.435-45.642-45.642-45.642s-45.642 20.435-45.642 45.642c0 25.207 20.435 45.642 45.642 45.642s45.642-20.435 45.642-45.642zM851.853 194.35c0-25.207-21.090-45.642-47.106-45.642h-416.968c-26.016 0-47.105 20.434-47.105 45.642v0c0 25.207 21.090 45.642 47.105 45.642h416.968c26.017-0.001 47.106-20.435 47.106-45.642v0zM884.647 906.804l-135.334-0.116c-0.23 0.004-0.457 0.017-0.688 0.017-20.138 0-36.464-16.326-36.464-36.464s16.326-36.464 36.464-36.464c0.231 0 0.458 0.012 0.688 0.017v-0.017h78.002c86.308 0 86.308-38.641 86.308-86.308v-630.669c0-47.667 0-86.308-86.308-86.308h-630.669c-86.308 0-86.308 38.641-86.308 86.308v630.669c0 47.667 0 86.308 86.308 86.308l78.002 0.023c19.723 0.478 35.566 16.604 35.566 36.442s-15.843 35.961-35.566 36.442v0.121h-135.334c-56.333 0-101.999-45.667-101.999-102v-745.335c0-56.333 45.667-102 101.999-102h745.335c56.333 0 102 45.667 102 102v745.335c-0.002 56.334-45.668 102-102.001 102zM720.78 817.19h-48.567c-19.531 70.141-83.866 121.613-160.232 121.613s-140.702-51.472-160.232-121.613h-48.567c-28.397 0-51.417-23.020-51.417-51.417s23.020-51.417 51.417-51.417h417.599c28.397 0 51.417 23.020 51.417 51.417s-23.020 51.417-51.417 51.417zM512.469 823.204c-19.808 0-35.863 16.056-35.863 35.863s16.056 35.863 35.863 35.863c19.807 0 35.863-16.056 35.863-35.863s-16.056-35.863-35.863-35.863z" />
<glyph unicode="&#xe91b;" glyph-name="order-payment" d="M194.167 609.275c0-21.682-17.577-39.259-39.259-39.259s-39.259 17.577-39.259 39.259c0 21.682 17.577 39.259 39.259 39.259s39.259-17.577 39.259-39.259zM700.351 609.275c0 21.682-18.142 39.259-40.52 39.259h-358.665c-22.378 0-40.52-17.577-40.52-39.259s18.141-39.259 40.52-39.259h358.665c22.378 0 40.52 17.577 40.52 39.259zM194.167 450.833c0-21.682-17.577-39.259-39.259-39.259s-39.259 17.577-39.259 39.259c0 21.682 17.577 39.259 39.259 39.259s39.259-17.577 39.259-39.259zM572.569 490.092h-271.403c-22.378 0-40.52-17.577-40.52-39.259s18.141-39.259 40.52-39.259h195.022c20.488 30.581 46.406 57.217 76.381 78.518zM194.167 289.143c0-21.682-17.577-39.259-39.259-39.259s-39.259 17.577-39.259 39.259c0 21.682 17.577 39.259 39.259 39.259s39.259-17.577 39.259-39.259zM260.647 289.143c0-21.682 18.141-39.259 40.52-39.259h144.144c0.553 27.208 4.703 53.532 11.994 78.519h-156.139c-22.378 0-40.519-17.578-40.519-39.26zM136.758 148.201c-74.239 0-74.239 33.238-74.239 74.239v542.484c0 41.002 0 74.239 74.239 74.239l67.095 0.019c16.964 0.411 30.593 14.282 30.593 31.346s-13.628 30.934-30.593 31.346v0.104h-116.41c-48.457 0-87.737-39.281-87.737-87.737v-641.118c0-48.456 39.281-87.737 87.737-87.737h402.498c-12.054 19.572-21.938 40.621-29.318 62.815h-323.865zM611.556 839.164c0.198 0 0.395 0.011 0.592 0.014v-0.014h67.095c74.239 0 74.239-33.238 74.239-74.239v-219.207c21.568-0.425 42.582-3.107 62.815-7.826v276.348c0 48.456-39.281 87.737-87.737 87.737l-116.41-0.099c-0.197 0.003-0.393 0.014-0.592 0.014-17.322 0-31.365-14.043-31.365-31.365s14.040-31.365 31.364-31.365zM184.168 780.666c0-24.426 19.802-44.228 44.228-44.228h359.208c24.426 0 44.228 19.802 44.228 44.228s-19.802 44.228-44.228 44.228h-41.776c-16.8 60.333-72.138 104.609-137.827 104.609s-121.027-44.275-137.827-104.609h-41.776c-24.427 0-44.229-19.802-44.229-44.228zM408.422 891.765c17.038 0 30.848-13.811 30.848-30.848s-13.811-30.848-30.848-30.848-30.848 13.811-30.848 30.848c-0.001 17.037 13.811 30.848 30.848 30.848zM747.408 520.461c-152.896 0-276.844-123.947-276.844-276.845s123.947-276.845 276.844-276.845c152.896 0 276.845 123.947 276.845 276.845s-123.947 276.845-276.845 276.845zM747.408 19.504c-123.773 0-224.112 100.339-224.112 224.112s100.339 224.112 224.112 224.112 224.112-100.339 224.112-224.112c0-123.773-100.339-224.112-224.112-224.112zM843.94 209.49v0.114c11.361 0 20.572 9.21 20.572 20.572s-9.21 20.572-20.572 20.572v0.114h-62.992l73.342 128.838c0.053 0.091 0.109 0.178 0.163 0.269 6.029 10.59 2.332 24.062-8.257 30.091s-24.062 2.333-30.091-8.257c-0.052-0.092-0.098-0.185-0.148-0.277l-0.007 0.004-71.081-124.847-71.088 124.844c-0.050 0.092-0.096 0.185-0.148 0.277-6.029 10.59-19.501 14.287-30.091 8.257s-14.286-19.502-8.257-30.091c0.052-0.092 0.108-0.179 0.162-0.268l-0.006-0.004 73.35-128.834h-57.911v-0.114c-11.361 0-20.572-9.21-20.572-20.572s9.21-20.572 20.572-20.572v-0.114h74.387v-16.035h-74.387v-0.114c-0.854 0-1.696-0.058-2.522-0.16-10.171-1.244-18.050-9.905-18.050-20.411 0-11.361 9.21-20.572 20.572-20.572v-0.114h74.387v-75.36h0.114c0-11.361 9.21-20.572 20.572-20.572s20.572 9.21 20.572 20.572h0.114v75.36h77.306v0.114c11.361 0 20.572 9.21 20.572 20.572 0 10.506-7.879 19.168-18.050 20.411-0.827 0.101-1.667 0.16-2.521 0.16v0.114h-77.306v16.035h77.307z" />
<glyph unicode="&#xe91c;" glyph-name="order-search" d="M203.606 602.98c0-22.735-18.43-41.164-41.164-41.164s-41.164 18.43-41.164 41.164c0 22.735 18.43 41.164 41.164 41.164s41.164-18.43 41.164-41.164zM732.267 602.98c0 22.735-19.021 41.164-42.486 41.164h-376.072c-23.465 0-42.486-18.43-42.486-41.164s19.021-41.164 42.486-41.164h376.072c23.465-0.001 42.486 18.429 42.486 41.164zM203.606 436.848c0-22.735-18.43-41.164-41.164-41.164s-41.164 18.43-41.164 41.164c0 22.735 18.43 41.164 41.164 41.164s41.164-18.43 41.164-41.164zM193.122 782.69c0-25.612 20.763-46.375 46.375-46.375h376.642c25.612 0 46.375 20.763 46.375 46.375s-20.763 46.375-46.375 46.375h-43.804c-17.615 63.262-75.64 109.686-144.516 109.686s-126.901-46.424-144.516-109.686h-43.804c-25.614-0.001-46.376-20.763-46.376-46.375zM428.258 899.179c17.864 0 32.346-14.481 32.346-32.346s-14.481-32.346-32.346-32.346c-17.864 0-32.346 14.481-32.346 32.346s14.481 32.346 32.346 32.346zM203.606 267.311c0-22.735-18.43-41.164-41.164-41.164s-41.164 18.43-41.164 41.164c0 22.735 18.43 41.164 41.164 41.164s41.164-18.43 41.164-41.164zM271.223 267.311c0-22.735 19.021-41.164 42.486-41.164h324.853c-12.134 25.091-19.474 52.928-20.838 82.33h-304.014c-23.466-0.001-42.487-18.431-42.487-41.165zM553.449 119.526h-410.039c-77.843 0-77.843 34.852-77.843 77.843v568.814c0 42.991 0 77.843 77.843 77.843l70.35 0.020c17.788 0.432 32.077 14.976 32.077 32.867s-14.29 32.436-32.077 32.867v0.109h-122.060c-50.809 0-91.995-41.188-91.995-91.995v-672.234c0-50.809 41.188-91.995 91.995-91.995h395.885l65.864 65.861zM641.253 844.026c0.208 0 0.413 0.011 0.621 0.015v-0.015h70.35c77.843 0 77.843-34.852 77.843-77.843v-239.438c13.556 2.714 27.575 4.148 41.929 4.148 8.094 0 16.076-0.469 23.934-1.35v288.351c0 50.809-41.188 91.995-91.995 91.995l-122.060-0.104c-0.207 0.004-0.412 0.015-0.621 0.015-18.163 0-32.888-14.724-32.888-32.888s14.722-32.887 32.887-32.887zM748.539 123.083c-9.676-2.31-21.604-3.556-36.315-3.556h-2.384l-65.863-65.863h119.957c36.839 0 68.615 21.656 83.307 52.93-5.036-0.357-10.117-0.549-15.244-0.549-29.632-0.001-57.838 6.077-83.458 17.039zM689.674 478.013h-375.966c-23.465 0-42.486-18.43-42.486-41.164s19.021-41.164 42.486-41.164h318.251c12.461 31.92 32.422 60.080 57.715 82.329zM829.173 509.927c-107.739 0-195.079-87.34-195.079-195.079 0-39.369 11.673-76.009 31.732-106.664l-185.781-185.782c-14.842-14.841-14.842-38.904 0-53.745s38.904-14.841 53.745 0l185.2 185.2c31.354-21.5 69.296-34.088 110.184-34.088 107.739 0 195.079 87.34 195.079 195.079s-87.341 195.079-195.079 195.079zM829.173 181.368c-73.718 0-133.477 59.759-133.477 133.477s59.76 133.477 133.477 133.477 133.477-59.759 133.477-133.477c0-73.717-59.759-133.477-133.477-133.477z" />
<glyph unicode="&#xe91d;" glyph-name="refund" d="M511.979 960.138c-282.77 0-512.001-229.23-512.001-512s229.231-512 512.001-512 512.001 229.23 512.001 512-229.231 512-512.001 512zM399.809 524.431v201.603c0 21.867 14.731 39.593 32.904 39.593h331.656c18.173 0 32.905-17.727 32.905-39.593v-201.603c0-21.867-14.732-39.593-32.905-39.593h-143.485l108.835-89.404 12.046 20.339c9.203 15.537 29.26 20.673 44.796 11.47s20.673-29.259 11.47-44.796l-17.184-29.012 45.638-37.49c14.043-11.535 16.074-32.27 4.539-46.312l-4.369-5.319c-11.535-14.042-32.271-16.074-46.312-4.539l-211.274 173.554c-14.043 11.535-16.074 32.27-4.539 46.312l4.27 5.198h-96.297v-156.539l74.019 39.172c16.062 8.5 35.973 2.37 44.473-13.691l3.219-6.085c8.5-16.062 2.37-35.974-13.691-44.474l-128.337-67.917c-9.732-5.15-20.871-4.922-30.035-0.376-12.988 4.401-22.341 16.685-22.341 31.162v258.342zM235.51 781.938c15.535 0 29.2-8.374 37.136-21.049 0.081 0.069 0.165 0.138 0.246 0.207 14.207-16.074 25.976-29.529 35.296-40.362 9.314-10.834 30.169-36.406 62.555-76.709-0.002-0.002-0.004-0.004-0.006-0.006 9.321-8.68 15.179-21.225 15.179-35.179 0-26.201-20.648-47.442-46.119-47.442-12.992 0-24.722 5.534-33.103 14.427-0.084-0.099-0.168-0.197-0.252-0.297-0.687 0.981-1.362 1.941-2.041 2.906-1.369 1.685-2.623 3.47-3.756 5.341-31.749 45.046-53.233 73.404-64.445 85.059l-28.563 30.258c-10.082 8.54-16.535 21.605-16.535 36.257 0 25.731 19.884 46.587 44.409 46.587zM830.84 125.772c-6.192 0-15.419-0.441-21.009-0.018-88.553-1.618-169.86-1.79-243.911-0.516-74.207 1.284-121.44 4.49-141.709 9.61-20.269 5.128-38.091 14.678-53.468 28.657l-23.414 22.366c-9.086 7.459-18.816 11.706-29.18 12.755-10.37 1.049-25.107-5.822-44.209-20.619-19.106-14.793-31.685-25.801-37.741-33.025l-3.044-3.487c-8.823-15.044-23.834-27.159-40.873-27.159-27.157 0-49.172 24.684-49.172 55.136 0 25.551 15.506 47.038 36.539 53.29-0.021 0.052-0.044 0.101-0.065 0.153 17.474 5.592 31.392 10.834 41.761 15.728 10.364 4.892 25.566 13.393 45.605 25.511v196.75h-35.297l-41.404-1.428c-2.391-0.448-4.851-0.694-7.371-0.694-21.963 0-39.768 17.805-39.768 39.769 0 21.327 16.788 38.73 37.87 39.721v0.214l50.672-1.398h64.509c2.301 0.35 4.657 0.532 7.055 0.532 25.693 0 46.522-20.828 46.522-46.522 0-2.486-0.199-4.925-0.575-7.305l-0.090-2.97v-210.031c6.755-3.964 11.762-6.988 15.028-9.085l28.306-20.968c16.306-12.11 31.917-20.795 46.83-26.036 14.907-5.241 52.885-9.085 113.925-11.532 61.037-2.446 111.77-2.096 152.194 1.049 38.611 3.005 80.265 7.769 124.938 14.28 0.179 0.040 0.367 0.087 0.543 0.124 1.596 0.331 3.177 0.541 4.742 0.651 0.335 0.050 0.667 0.097 1.002 0.147-0.011-0.034-0.023-0.068-0.033-0.1 24.507 1.041 44.297-24.197 44.297-49.849 0.001-27.617-22.387-43.697-50.005-43.697zM507.329 516.484c-15.829 0-28.659 13.019-28.659 29.077s12.83 29.077 28.659 29.077h184.987c15.829 0 28.659-13.019 28.659-29.077s-12.83-29.077-28.659-29.077h-184.987zM507.329 699.825h184.987c15.829 0 28.659-13.019 28.659-29.077s-12.83-29.077-28.659-29.077h-184.987c-15.829 0-28.659 13.019-28.659 29.077s12.83 29.077 28.659 29.077z" />
<glyph unicode="&#xe91e;" glyph-name="shortage" d="M533.596 944.374l-533.893-146.503v-537.426l510.584-307.571v-0.975l0.809 0.487 0.81-0.487v0.975l510.584 307.572v536.655l1.761 0.77-490.656 146.503zM551.087 908.581l132.812-41.141-432.741-149.187-151.799 63.196 451.727 127.133zM469.088 35.551l-420.197 245.184v440.528l420.197-185.871v-499.84zM510.037 610.477l-186.59 77.681 437.865 155.301 168.256-52.121-419.529-180.86zM972.443 285.969l-425.182-250.312v505.099l425.182 190.966v-445.753zM606.128 358.456l-35.874-21.237-3.931-59.103 39.401 27.304 51.66 34.083-7.786-131.248-19.121-16.714 4.108 67.547 4.135 52.458-56.673-38.058-1.882-48.548-4.982-76.58-5.286-61.318c82.592 73.468 128.608 114.222 144.869 128.332l-0.616-11.396 35.518 28.335c-13.434-18.179-27.923-36.438-43.527-54.802l12.853-4.464c0.263-0.257 3.137-1.823 8.579-4.691 5.402-2.841 9.742-4.962 13.049-6.366 21.363 31.595 37.512 56.276 48.852 74.617 11.113 17.98 20.661 35.071 28.718 51.355 7.936 16.043 13.945 29.545 18.087 40.617 4.108 10.979 8.11 22.174 12.011 33.576l5.239-11.395c2.934-6.982 7.671-13.63 14.162-19.915 6.421-6.219 13.508-10.711 21.237-13.494 7.625-2.747 15.987-4.99 25.049-6.737 8.483 21.102 13.769 34.006 15.96 38.968 2.178 4.936 5.421 12.036 9.706 21.249-9.93-1.623-20.273 0.016-31.039 5.010-10.976 5.091-19.406 13.39-25.171 24.898-5.82 11.61-10.776 25.797-14.847 42.552l39.291 27.195 31.563 21.075 1.588 43.318-15.961-11.179 2.528 66.636 2.116 40.428-24.928-14.747-32.055-17.731 2.832 40.023c0.117 2.738 0.915 12.716 2.393 29.88-11.518-6.471-24.541-12.543-39.165-18.219l-0.662-29.593-1.925-42.297-18.186-10.060-26.333-13.48-2.435-49.543 29.717 18.691 14.456 8.562-1.202-34.028c-0.191-4.205-0.861-16.326-2.008-36.42l-22.578-14.732-27.947-17.349-2.546-51.29 28.24 21.104 19.623 13.581-1.348-10.151c-1.105-8.648-3.362-19.758-6.78-33.367-3.446-13.712-8.272-28.165-14.516-43.419-6.32-15.438-13.231-29.528-20.75-42.262-7.625-12.907-15.048-25.102-22.262-36.571l0.421 27.724 4.367 86.219 2.814 36.357-44.992-30.212-0.896-35.838-3.645-67.404-18.042-14.994 6.794 122.483 34.469 22.741 30.986 19.327 2.508 49.918-31.319-20.337-33.835-21.009 3.397 61.267 25.039 14.368 35.593 19.54 2.489 49.22-32.766-18.415-69.054-36.961 10.843 29.438c0.869 2.337 3.451 10.177 7.715 23.455-17.785-4.169-35.809-8.085-54.077-11.74-3.746-17.016-8.246-34.397-13.526-52.183-5.328-17.947-12.326-36.53-21.048-55.818-8.849-19.565-15.39-32.72-19.551-39.294-4.192-6.621-9.141-13.92-14.863-21.921l13.224-3.028c8.859-1.883 17.133-8.605 24.84-20.096 16.909 28.296 31.122 57.479 42.798 87.66l14.278 8.194-3.784-63.772-54.385-33.778zM870.019 553.918l25.303 14.984-2.689-66.375-25.848-16.864 3.236 68.257z" />
<glyph unicode="&#xe91f;" glyph-name="evaluate" d="M962.429 358.874c75.998-55.655 44.204-180.648-19.206-190.158 12.298-41.608 17.459-176.729-158.468-175.15-208.38 0-228.818 91.976-365.037 92.681 0 0 57.213-75.385 46.258-89.774s-120.835-23.545-200.628-23.545-163.072 7.849-187.491 23.545-79.359 143.889-63.663 364.956c11.916 167.818 81.101 332.254 102.031 336.179s74.237-40.535 156.971-61.48c88.007-22.28 189.337-5.921 199.802-21.618 5.213-7.819-13.969-21.272-27.191-40.984-16.31-24.314-25.088-42.646-25.088-42.646l6.996 2.944c222.901 88.578 235.291 282.379 246.629 325.117 4.215 15.886 30.911 96.494 117.728 49.707 80.243-43.244 10.104-326.258 10.104-326.258s162.83-30.059 194.835-74.836c29.644-41.476 16.164-103.953-34.581-148.678v0zM727.187 559.028c15.043 29.183 116.334 272.66 22.152 293.808-97.335 21.856 51.452-184.877-348.080-407.906 1.798 1.004-23.417-25.072-23.417-127.539s23.347-159.466 23.347-159.466c108.081-0.281 238.001-106.221 378.068-106.221 105.659-0.965 92.497 85.94 81.787 131.99-2.673 11.24 6.411 19.314 13.923 21.415 121.602 34.015 53.546 115.121 21.951 143.496-20.346 18.742-14.765 30.441-1.604 35.338 22.115 8.227 62.011 22.398 55.034 76.466-8.198 63.53-168.548 76.668-192.108 68.104-23.555-8.569-46.095 1.334-31.052 30.516v0z" />
<glyph unicode="&#xe920;" glyph-name="common-directory" d="M149.843 765.128c0-36.72-29.767-66.487-66.487-66.487s-66.487 29.767-66.487 66.487c0 36.72 29.767 66.487 66.487 66.487s66.487-29.767 66.487-66.487zM331.051 698.64h607.416c37.898 0 68.622 29.767 68.622 66.487s-30.723 66.487-68.622 66.487h-607.416c-37.899 0-68.622-29.767-68.622-66.487s30.723-66.487 68.622-66.487zM149.843 448c0-36.72-29.767-66.487-66.487-66.487s-66.487 29.767-66.487 66.487c0 36.72 29.767 66.487 66.487 66.487s66.487-29.767 66.487-66.487zM938.467 514.487h-607.416c-37.899 0-68.622-29.767-68.622-66.487s30.723-66.487 68.622-66.487h607.416c37.898 0 68.622 29.767 68.622 66.487s-30.724 66.487-68.622 66.487zM149.843 130.872c0-36.72-29.767-66.487-66.487-66.487s-66.487 29.767-66.487 66.487c0 36.72 29.767 66.487 66.487 66.487s66.487-29.767 66.487-66.487zM938.467 197.36h-607.416c-37.899 0-68.622-29.767-68.622-66.487s30.723-66.487 68.622-66.487h607.416c37.898 0 68.622 29.768 68.622 66.487s-30.724 66.487-68.622 66.487z" />
<glyph unicode="&#xe921;" glyph-name="payment-order-info" d="M897.527 922.519l-140.011-0.12c-0.237 0.004-0.474 0.018-0.712 0.018-20.833 0-37.723-16.89-37.723-37.724s16.89-37.724 37.723-37.724c0.238 0 0.475 0.013 0.712 0.018v-0.018h80.696c89.29 0 89.29-39.976 89.29-89.291v-652.464c0-49.313 0-89.291-89.29-89.291h-652.464c-89.291 0-89.291 39.976-89.291 89.291v652.464c0 49.313 0 89.291 89.291 89.291l80.696 0.024c20.404 0.495 36.795 17.177 36.795 37.701 0 20.522-16.391 37.205-36.795 37.701v0.126h-140.011c-58.279 0-105.524-47.245-105.524-105.525v-771.094c0-58.279 47.245-105.524 105.524-105.524h771.094c58.28 0 105.525 47.245 105.525 105.524v771.094c-0.001 58.279-47.246 105.524-105.525 105.524zM727.994 829.808h-50.246c-20.205 72.566-86.763 125.817-165.769 125.817s-145.564-53.251-165.769-125.817h-50.246c-29.378 0-53.195-23.815-53.195-53.195 0-29.378 23.815-53.195 53.195-53.195h432.031c29.378 0 53.195 23.816 53.195 53.195s-23.814 53.195-53.194 53.195zM512.486 836.030c-20.491 0-37.103 16.611-37.103 37.103s16.611 37.103 37.103 37.103 37.102-16.611 37.102-37.103-16.611-37.103-37.102-37.103zM216.81 645.381c0-21.075-17.084-38.159-38.159-38.159s-38.159 17.084-38.159 38.159c0 21.075 17.084 38.159 38.159 38.159s38.159-17.084 38.159-38.159zM838.849 645.381c0-21.075-17.633-38.159-39.385-38.159h-478.652c-21.751 0-39.385 17.084-39.385 38.159v0c0 21.075 17.633 38.16 39.385 38.16h478.652c21.752-0.001 39.385-17.085 39.385-38.16v0zM216.81 515.744c0-21.075-17.084-38.159-38.159-38.159s-38.159 17.084-38.159 38.159c0 21.075 17.084 38.159 38.159 38.159s38.159-17.084 38.159-38.159zM838.849 515.744c0-21.075-17.633-38.16-39.385-38.16h-478.652c-21.751 0-39.385 17.085-39.385 38.16v0c0 21.075 17.633 38.16 39.385 38.16h478.652c21.752-0.001 39.385-17.085 39.385-38.16v0zM622.007 194.217v0.445h-84.836v9.41h84.836v0.439c12.77 1.975 22.576 13.041 22.576 26.355s-9.806 24.379-22.576 26.354v0.44h-66.183l77.13 135.472c0.019 0.032 0.037 0.063 0.053 0.092 0.048 0.083 0.094 0.166 0.14 0.249l1.709 3.014-0.208 0.118c5.251 12.941 0.226 28.131-12.234 35.225-4.265 2.427-9.101 3.712-13.983 3.712-8.837 0-17.123-4.144-22.443-11.036l-0.234 0.147-76.564-134.478-74.574 130.982c-0.015 0.028-0.030 0.054-0.045 0.080-0.043 0.076-0.086 0.15-0.13 0.226l-1.62 2.83-0.192-0.095c-5.304 7.072-13.707 11.344-22.68 11.344-4.882 0-9.717-1.284-13.983-3.712-12.573-7.159-17.575-22.565-12.092-35.57l-0.163-0.115 1.612-2.831c0.014-0.025 0.028-0.051 0.042-0.075 0.012-0.020 0.023-0.040 0.034-0.060l77.157-135.52h-60.606v-0.44c-12.77-1.975-22.575-13.040-22.575-26.354s9.805-24.38 22.575-26.355v-0.439h81.633v-9.41h-81.633v-0.445c-12.928-1.991-22.575-13.174-22.575-26.349 0-13.314 9.805-24.38 22.575-26.355v-0.439h81.633v-82.701h0.439c1.975-12.77 13.041-22.576 26.355-22.576s24.38 9.806 26.355 22.576h0.439v82.701h84.836v0.439c12.77 1.975 22.576 13.041 22.576 26.355 0.001 13.175-9.646 24.358-22.575 26.349z" />
<glyph unicode="&#xe922;" glyph-name="purchase-order" d="M196.346 608.707c0-21.406-17.353-38.76-38.76-38.76s-38.76 17.353-38.76 38.76c0 21.406 17.353 38.76 38.76 38.76s38.76-17.353 38.76-38.76zM656.089 647.467h-354.105c-22.094 0-40.004-17.353-40.004-38.76s17.911-38.76 40.004-38.76h354.105c22.094 0 40.004 17.353 40.004 38.76s-17.91 38.76-40.004 38.76zM196.346 452.279c0-21.406-17.353-38.76-38.76-38.76s-38.76 17.353-38.76 38.76c0 21.406 17.353 38.76 38.76 38.76s38.76-17.353 38.76-38.76zM696.094 452.279c0 21.407-17.911 38.76-40.004 38.76h-354.105c-22.094 0-40.004-17.353-40.004-38.76s17.911-38.76 40.004-38.76h354.105c22.093 0 40.004 17.353 40.004 38.76zM196.346 292.645c0-21.406-17.353-38.76-38.76-38.76s-38.76 17.353-38.76 38.76c0 21.406 17.353 38.76 38.76 38.76s38.76-17.353 38.76-38.76zM261.98 292.645c0-21.407 17.911-38.76 40.004-38.76h165.937l-18.242 77.521h-147.696c-22.092 0-40.003-17.354-40.003-38.761zM499.104 121.378l-7.558 32.116h-351.88c-73.295 0-73.295 32.815-73.295 73.295v535.587c0 40.48 0 73.295 73.295 73.295l66.241 0.019c16.748 0.406 30.204 14.1 30.204 30.947s-13.454 30.541-30.204 30.947v0.103h-114.931c-47.84 0-86.622-38.782-86.622-86.622v-632.967c0-47.841 38.782-86.622 86.622-86.622h431.729c-11.871 5.64-20.845 16.497-23.601 29.9zM608.427 835.672c0.195 0 0.39 0.011 0.584 0.014v-0.014h66.241c73.295 0 73.295-32.815 73.295-73.295v-363.945h62.016v412.634c0 47.84-38.782 86.622-86.622 86.622l-114.931-0.098c-0.195 0.004-0.389 0.014-0.584 0.014-17.103 0-30.966-13.864-30.966-30.966s13.865-30.965 30.966-30.965zM186.474 777.919c0-24.116 19.549-43.665 43.665-43.665h354.641c24.116 0 43.665 19.549 43.665 43.665s-19.549 43.665-43.665 43.665h-41.245c-16.586 59.567-71.221 103.278-136.075 103.278s-119.489-43.713-136.075-103.278h-41.245c-24.116 0-43.665-19.549-43.665-43.665zM407.876 887.604c16.821 0 30.457-13.636 30.457-30.457s-13.636-30.457-30.457-30.457-30.457 13.636-30.457 30.457 13.636 30.457 30.457 30.457zM855.517 58.418c-5.971 0-11.662-1.202-16.845-3.373-10.136-4.245-18.32-12.207-22.869-22.18-2.514-5.513-3.926-11.634-3.926-18.090 0-24.102 19.536-43.639 43.64-43.639 24.098 0 43.639 19.539 43.639 43.639 0 24.107-19.541 43.643-43.639 43.643zM987.413 403.52h-80.483c-16.244 0-29.939-12.182-31.95-28.422l-4.521-36.467h-300.255l-2.527 8.908c-4.893 17.222-22.709 27.203-39.804 22.285l0.013 0.018c-17.092-4.933-26.992-22.889-22.116-40.117l1.172-4.13 63.214-222.974c3.944-13.93 16.578-23.534 30.954-23.534h273.629c16.244 0 29.939 12.182 31.95 28.423l28.67 231.121h52.055c17.784 0 32.19 14.519 32.19 32.447-0.001 17.924-14.407 32.442-32.191 32.442zM665.475 143.977h-40.11l-9.19 32.444h49.3v-32.444zM665.475 208.861h-58.51l-9.188 32.447h67.699v-32.447zM665.475 273.748h-76.908l-9.189 32.444h86.098v-32.444zM762.055 143.977h-64.386v32.444h64.386v-32.444zM762.055 208.861h-64.386v32.447h64.386v-32.447zM762.055 273.748h-64.386v32.444h64.386v-32.444zM847.235 151.535l-0.937-7.558h-52.055v32.444h56.078l-3.086-24.886zM854.345 208.861h-60.101v32.447h64.128l-4.027-32.447zM862.394 273.748h-68.148v32.444h72.172l-4.024-32.444zM635.436 58.418c-18.533 0-34.354-11.553-40.685-27.846-1.903-4.9-2.959-10.223-2.959-15.797 0-24.102 19.537-43.639 43.643-43.639 24.102 0 43.638 19.539 43.638 43.639 0 5.573-1.055 10.897-2.959 15.797-6.328 16.293-22.147 27.846-40.677 27.846z" />
<glyph unicode="&#xe923;" glyph-name="return-order" d="M209.659 595.124c0-21.24-17.218-38.458-38.458-38.458s-38.458 17.218-38.458 38.458c0 21.24 17.218 38.458 38.458 38.458s38.458-17.218 38.458-38.458zM705.514 595.124c0 21.24-17.771 38.458-39.693 38.458h-351.347c-21.921 0-39.693-17.218-39.693-38.458s17.771-38.458 39.693-38.458h351.347c21.922 0 39.693 17.218 39.693 38.458zM209.659 439.915c0-21.24-17.218-38.458-38.458-38.458s-38.458 17.218-38.458 38.458c0 21.24 17.218 38.458 38.458 38.458s38.458-17.218 38.458-38.458zM580.34 478.374h-265.866c-21.921 0-39.693-17.218-39.693-38.459s17.771-38.458 39.693-38.458h191.043c20.069 29.957 45.459 56.050 74.823 76.917zM209.659 281.523c0-21.24-17.218-38.458-38.458-38.458s-38.458 17.218-38.458 38.458c0 21.24 17.218 38.458 38.458 38.458s38.458-17.218 38.458-38.458zM274.782 281.523c0-21.24 17.771-38.458 39.693-38.458h141.203c0.542 26.653 4.607 52.44 11.749 76.917h-152.953c-21.921 0-39.692-17.219-39.692-38.459zM153.42 143.457c-72.725 0-72.725 32.56-72.725 72.724v531.416c0 40.165 0 72.724 72.725 72.724l65.725 0.019c16.618 0.403 29.969 13.991 29.969 30.706s-13.35 30.303-29.969 30.706v0.102h-114.035c-47.467 0-85.947-38.48-85.947-85.947v-628.038c0-47.467 38.48-85.947 85.947-85.947h394.286c-11.808 19.173-21.489 39.792-28.72 61.533h-317.256zM618.531 820.323c0.194 0 0.387 0.011 0.58 0.014v-0.014h65.725c72.725 0 72.725-32.56 72.725-72.724v-214.735c21.128-0.416 41.713-3.044 61.533-7.666v270.712c0 47.467-38.48 85.947-85.947 85.947l-114.035-0.097c-0.193 0.003-0.386 0.014-0.58 0.014-16.969 0-30.725-13.756-30.725-30.725s13.755-30.727 30.724-30.727zM199.864 763.019c0-23.928 19.398-43.326 43.326-43.326h351.879c23.928 0 43.326 19.398 43.326 43.326s-19.398 43.326-43.326 43.326h-40.924c-16.457 59.102-70.666 102.475-135.016 102.475s-118.558-43.372-135.015-102.475h-40.924c-23.929 0-43.326-19.398-43.326-43.326zM419.541 871.85c16.689 0 30.219-13.529 30.219-30.219s-13.529-30.219-30.219-30.219c-16.69 0-30.219 13.529-30.219 30.219s13.53 30.219 30.219 30.219zM751.935 492.903c-139.651 0-252.861-113.209-252.861-252.861s113.209-252.861 252.861-252.861 252.861 113.209 252.861 252.861-113.21 252.861-252.861 252.861zM696.537 277.721v99.566c0 10.799 7.275 19.554 16.25 19.554h163.794c8.975 0 16.251-8.754 16.251-19.554v-99.565c0-10.799-7.276-19.554-16.251-19.554h-70.863l53.75-44.154 5.95 10.045c4.545 7.674 14.45 10.21 22.124 5.664s10.21-14.45 5.665-22.124l-8.487-14.328 22.539-18.516c6.935-5.697 7.939-15.937 2.242-22.872l-2.158-2.627c-5.697-6.935-15.937-7.939-22.872-2.242l-104.342 85.714c-6.935 5.697-7.939 15.937-2.242 22.872l2.109 2.566h-47.558v-77.31l36.556 19.346c7.933 4.198 17.766 1.171 21.964-6.762l1.59-3.004c4.198-7.933 1.171-17.766-6.762-21.964l-63.382-33.542c-4.806-2.543-10.308-2.43-14.834-0.185-6.415 2.174-11.033 8.241-11.033 15.39v127.587zM615.395 404.895c7.673 0 14.42-4.136 18.341-10.396 0.040 0.034 0.082 0.069 0.122 0.101 7.017-7.939 12.828-14.584 17.431-19.934 4.601-5.351 14.899-17.979 30.894-37.884-0.001-0.001-0.002-0.002-0.003-0.003 4.604-4.287 7.496-10.483 7.496-17.374 0-12.94-10.197-23.43-22.777-23.43-6.416 0-12.209 2.733-16.348 7.125-0.042-0.049-0.083-0.097-0.125-0.146-0.34 0.484-0.672 0.959-1.008 1.436-0.676 0.832-1.296 1.714-1.855 2.638-15.68 22.247-26.291 36.253-31.828 42.008l-14.106 14.943c-4.978 4.218-8.166 10.67-8.166 17.906 0.002 12.708 9.822 23.009 21.934 23.009zM909.41 80.837c-3.059 0-7.614-0.217-10.376-0.009-43.733-0.799-83.889-0.884-120.46-0.255-36.649 0.634-59.976 2.218-69.986 4.746-10.010 2.533-18.812 7.249-26.406 14.152l-11.563 11.046c-4.487 3.683-9.293 5.782-14.411 6.299-5.122 0.518-12.399-2.874-21.833-10.183-9.435-7.305-15.648-12.742-18.638-16.31l-1.503-1.722c-4.357-7.429-11.771-13.412-20.186-13.412-13.411 0-24.284 12.191-24.284 27.229 0 12.619 7.657 23.23 18.046 26.318-0.011 0.026-0.021 0.050-0.033 0.076 8.63 2.762 15.504 5.351 20.625 7.767 5.119 2.416 12.626 6.615 22.523 12.599v97.169h-17.432l-20.448-0.706c-1.181-0.221-2.396-0.342-3.641-0.342-10.847 0-19.64 8.793-19.64 19.64 0 10.533 8.292 19.128 18.703 19.617v0.105l25.026-0.691h31.86c1.136 0.173 2.299 0.263 3.484 0.263 12.689 0 22.975-10.286 22.975-22.975 0-1.228-0.098-2.432-0.283-3.608l-0.045-1.466v-103.727c3.336-1.958 5.809-3.452 7.422-4.487l13.979-10.356c8.053-5.981 15.763-10.269 23.128-12.858 7.363-2.588 26.118-4.487 56.264-5.696s55.2-1.036 75.164 0.518c19.069 1.484 39.64 3.836 61.703 7.053 0.088 0.019 0.181 0.043 0.268 0.061 0.788 0.164 1.569 0.267 2.341 0.321 0.166 0.025 0.33 0.048 0.494 0.073-0.005-0.016-0.011-0.033-0.016-0.050 12.103 0.515 21.877-11.95 21.877-24.619-0.001-13.638-11.058-21.579-24.697-21.579zM749.638 364.343h91.36c7.817 0 14.154-6.429 14.154-14.36s-6.337-14.36-14.154-14.36h-91.36c-7.817 0-14.154 6.429-14.154 14.36s6.337 14.36 14.154 14.36zM749.638 284.332c-7.817 0-14.154 6.429-14.154 14.36s6.337 14.36 14.154 14.36h91.36c7.817 0 14.154-6.429 14.154-14.36s-6.337-14.36-14.154-14.36h-91.36z" />
<glyph unicode="&#xe924;" glyph-name="commodity-catalog" d="M149.844 770.244c0-36.72-29.767-66.487-66.487-66.487s-66.487 29.767-66.487 66.487c0 36.72 29.767 66.487 66.487 66.487s66.487-29.767 66.487-66.487zM331.051 703.757h607.416c37.898 0 68.622 29.767 68.622 66.487s-30.723 66.487-68.622 66.487h-607.416c-37.899 0-68.622-29.767-68.622-66.487s30.723-66.487 68.622-66.487zM149.844 453.117c0-36.72-29.767-66.487-66.487-66.487s-66.487 29.767-66.487 66.487c0 36.72 29.767 66.487 66.487 66.487s66.487-29.767 66.487-66.487zM701.963 519.604h-370.913c-37.899 0-68.622-29.767-68.622-66.487s30.723-66.487 68.622-66.487h244.917c14.92 29.94 45.834 50.511 81.558 50.511h21.923v10.185c0 26.848 8.322 51.749 22.515 72.278zM149.844 135.989c0-36.72-29.767-66.487-66.487-66.487s-66.487 29.767-66.487 66.487c0 36.72 29.767 66.487 66.487 66.487s66.487-29.767 66.487-66.487zM566.451 202.476h-235.4c-37.899 0-68.622-29.767-68.622-66.487s30.723-66.487 68.622-66.487h239.687c-2.781 8.728-4.287 18.026-4.287 27.675v105.299zM916.337 321.129v105.279c0 57.348-48.223 103.837-107.71 103.837s-107.71-46.49-107.71-103.837v-105.344c-12.305-4.343-21.126-16.069-21.126-29.86 0-17.487 14.176-31.663 31.663-31.663s31.663 14.176 31.663 31.663c0 14.365-9.569 26.488-22.679 30.361v93.339c0 51.097 39.483 92.52 88.19 92.52 48.705 0 88.19-41.422 88.19-92.52v-93.394c-13.009-3.936-22.483-16.013-22.483-30.306 0-17.487 14.176-31.663 31.663-31.663s31.663 14.176 31.663 31.663c-0.001 13.864-8.916 25.639-21.324 29.926zM731.28 291.204c0-10.95-8.877-19.827-19.827-19.827s-19.827 8.877-19.827 19.827 8.877 19.827 19.827 19.827c10.949 0 19.827-8.877 19.827-19.827zM905.996 271.376c-10.95 0-19.827 8.877-19.827 19.827s8.877 19.827 19.827 19.827c10.95 0 19.827-8.877 19.827-19.827s-8.876-19.827-19.827-19.827zM736.063 402.758h145.936v-30.789h-145.936v30.789zM957.284 402.758h-26.767v-30.789h4.395c26.030 0 47.13-21.245 47.13-47.453v-176.523h-346.635v176.523c0 26.208 21.101 47.453 47.13 47.453h5.007v30.789h-27.379c-30.644 0-55.486-25.28-55.486-56.464v-236.268c0-31.184 24.842-56.464 55.486-56.464h297.117c30.644 0 55.486 25.28 55.486 56.464v236.268c0 31.184-24.842 56.464-55.486 56.464zM934.912 84.351h-252.374c-24.954 0-45.365 19.53-47.011 44.234h346.395c-1.645-24.705-22.056-44.234-47.011-44.234z" />
<glyph unicode="&#xe925;" glyph-name="distribution-relationship" d="M897.525 922.519l-140.011-0.12c-0.237 0.004-0.474 0.018-0.712 0.018-20.835 0-37.724-16.89-37.724-37.724s16.89-37.724 37.724-37.724c0.238 0 0.475 0.013 0.712 0.018v-0.018h80.696c89.291 0 89.291-39.976 89.291-89.291v-652.464c0-49.313 0-89.291-89.291-89.291h-652.464c-89.291 0-89.291 39.976-89.291 89.291v652.464c0 49.313 0 89.291 89.291 89.291l80.696 0.024c20.404 0.495 36.795 17.177 36.795 37.701 0 20.522-16.391 37.205-36.795 37.701v0.126h-140.011c-58.279 0-105.524-47.245-105.524-105.525v-771.094c0-58.279 47.245-105.524 105.524-105.524h771.094c58.279 0 105.525 47.245 105.525 105.524v771.094c-0.001 58.279-47.246 105.524-105.525 105.524zM727.994 829.808h-50.246c-20.205 72.566-86.763 125.817-165.769 125.817s-145.564-53.251-165.769-125.817h-50.246c-29.378 0-53.195-23.815-53.195-53.195 0-29.378 23.816-53.195 53.195-53.195h432.032c29.378 0 53.195 23.816 53.195 53.195s-23.816 53.195-53.195 53.195zM512.485 836.030c-20.492 0-37.103 16.611-37.103 37.103s16.611 37.103 37.103 37.103c20.491 0 37.103-16.611 37.103-37.103s-16.612-37.103-37.103-37.103zM216.809 624.915c0-21.075-17.084-38.159-38.159-38.159s-38.159 17.084-38.159 38.159c0 21.075 17.084 38.159 38.159 38.159s38.159-17.084 38.159-38.159zM838.848 624.915c0-21.075-17.633-38.159-39.384-38.159h-478.654c-21.751 0-39.385 17.084-39.385 38.159v0c0 21.075 17.633 38.16 39.385 38.16h478.654c21.751-0.001 39.384-17.085 39.384-38.16v0zM216.809 495.278c0-21.075-17.084-38.159-38.159-38.159s-38.159 17.084-38.159 38.159c0 21.075 17.084 38.159 38.159 38.159s38.159-17.084 38.159-38.159zM838.848 495.278c0-21.075-17.633-38.16-39.384-38.16h-478.654c-21.751 0-39.385 17.085-39.385 38.16v0c0 21.075 17.633 38.16 39.385 38.16h478.654c21.751-0.001 39.384-17.085 39.384-38.16v0zM567.391 373.321c-0.166 3.973-1.569 7.477-3.97 10.616-4.475 5.707-10.515 7.477-17.527 7.445-81.817-0.067-163.637-0.034-245.424-0.034-1.401 0-2.771-0.070-4.139-0.168-9.181-0.634-16.626-8.045-17.326-17.224-0.132-1.569-0.199-3.105-0.199-4.707 0-87.527 0.099-175.055-0.135-262.618-0.067-14.152 9.046-22.998 22.499-22.364 10.515 0.533 21.131 0.1 31.681 0.1h3.372c5.508 33.481 31.68 55.913 59.655 57.918 41.659 3.038 65.762-18.694 76.275-57.785 0.036 0 0.337-0.099 0.636-0.099 25.168 0 50.338-0.067 75.509 0.099 2.87 0 5.975 0.703 8.512 2.005 7.811 3.871 10.717 10.615 10.717 19.16-0.101 88.128-0.065 176.257-0.065 264.385-0.002 1.068-0.002 2.168-0.071 3.272v0zM779.099 203.706c-2.002 13.386-7.778 25.17-15.623 35.987-7.012 9.648-14.255 19.16-21.53 28.609-9.281 12.151-18.628 24.269-28.209 36.185-5.806 7.243-13.653 10.216-22.965 10.18-27.509-0.099-55.047-0.033-82.622-0.065-2.335-0.033-4.774-0.199-7.009-0.8-9.116-2.438-14.222-9.68-14.222-19.997v-188.607c0-1.268 0-2.537 0.132-3.805 0.971-9.515 9.75-17.392 18.863-16.659 2.705 16.557 10.315 30.644 23.067 41.695 12.92 11.15 28.074 16.59 45.099 16.59 28.14 0.065 60.821-20.161 67.231-58.651 3.973 0 8.012-0.033 12.017 0.033 3.639 0.065 7.411-0.234 10.916 0.534 9.347 2.002 15.057 9.578 15.057 19.628 0.033 31.48 0 62.992 0 94.437 0.099 1.538 0.033 3.172-0.202 4.708v0zM644.704 199.501v76.879h3.438c13.485 0 27.037-0.168 40.559 0.065 4.805 0.1 8.345-1.77 10.916-5.307 14.186-19.431 28.308-38.923 42.194-58.585 2.304-3.305 3.507-7.411 5.175-11.183 0.234-0.469 0.034-1.136 0.034-1.87h-102.315zM403.988 118.883c-24.602 0.067-44.466-19.595-44.498-44.198-0.034-24.503 19.794-44.297 44.397-44.297 24.569 0 44.498 19.893 44.432 44.363-0.034 24.335-19.797 44.030-44.331 44.131zM403.893 47.017c-15.357 0-27.733 12.354-27.711 27.649 0.020 15.357 12.419 27.629 27.775 27.587 15.314-0.063 27.649-12.356 27.67-27.545 0.041-15.274-12.398-27.691-27.734-27.691zM673.813 118.883c-24.503 0.232-44.63-19.563-44.766-44.032-0.133-24.435 19.697-44.297 44.333-44.463 24.401-0.135 44.264 19.427 44.498 43.898 0.3 24.5-19.328 44.363-44.066 44.597zM673.412 47.020c-15.376 0.103-27.752 12.5-27.669 27.751 0.084 15.273 12.646 27.627 27.939 27.482 15.44-0.146 27.691-12.543 27.502-27.835-0.146-15.272-12.544-27.482-27.773-27.398z" />
<glyph unicode="&#xe926;" glyph-name="drug-catalog" d="M139.68 792.685c0-36.789-29.824-66.613-66.613-66.613s-66.613 29.824-66.613 66.613c0 36.789 29.824 66.613 66.613 66.613s66.613-29.824 66.613-66.613zM321.232 726.071h608.568c37.971 0 68.752 29.824 68.752 66.614s-30.781 66.613-68.752 66.613h-608.568c-37.971 0-68.752-29.824-68.752-66.613s30.781-66.614 68.752-66.614zM139.68 474.955c0-36.789-29.824-66.613-66.613-66.613s-66.613 29.824-66.613 66.613c0 36.789 29.824 66.613 66.613 66.613s66.613-29.824 66.613-66.613zM139.681 157.225c0-36.79-29.824-66.614-66.614-66.614s-66.614 29.824-66.614 66.614c0 36.79 29.824 66.614 66.614 66.614s66.614-29.824 66.614-66.614zM848.96 512.89c12.179 12.179 26.011 21.729 40.808 28.679h-568.537c-37.971 0-68.752-29.824-68.752-66.614s30.781-66.613 68.752-66.613h423.18l104.548 104.548zM974.444 207.863l-117.251-117.251h72.608c37.971 0 68.752 29.824 68.752 66.613 0.001 20.275-9.36 38.421-24.108 50.638zM918.451 187.134v0zM568.441 223.839h-247.209c-37.971 0-68.752-29.824-68.752-66.614s30.781-66.613 68.752-66.613h243.37c-19.463 42.821-18.254 92.345 3.839 133.227zM988.4 439.392c-46.53 46.53-120.976 47.522-166.281 2.218l-199.999-199.999c-45.305-45.305-44.312-119.752 2.218-166.282s120.976-47.522 166.281-2.218l199.999 199.999c45.305 45.306 44.312 119.752-2.218 166.282zM787.239 97.335c-42.803-42.803-109.042-45.962-147.949-7.055s-35.748 105.146 7.055 147.95l89.069 89.069 140.895-140.894-89.070-89.070zM876.515 186.612v0zM947.027 304.089l-18.786-18.786-37.572 37.572-37.572-37.572-18.786 18.786 37.572 37.572-37.572 37.572 12.93 12.929 0.563-0.563v1.125l5.294 5.294 37.572-37.572 37.572 37.572 18.786-18.786-37.572-37.572 37.571-37.571z" />
<glyph unicode="&#xe927;" glyph-name="filing-application" d="M379.227 492.646c0-19.63-15.913-35.544-35.544-35.544s-35.544 15.913-35.544 35.544c0 19.63 15.913 35.544 35.544 35.544s35.544-15.913 35.544-35.544zM837.496 492.646c0-19.63-16.424-35.544-36.685-35.544h-324.716c-20.26 0-36.685 15.913-36.685 35.544v0c0 19.63 16.424 35.544 36.685 35.544h324.716c20.26 0 36.685-15.913 36.685-35.544v0zM379.227 349.202c0-19.63-15.913-35.544-35.544-35.544s-35.544 15.913-35.544 35.544c0 19.63 15.913 35.544 35.544 35.544s35.544-15.913 35.544-35.544zM837.496 349.202c0 19.63-16.424 35.544-36.685 35.544h-324.716c-20.26 0-36.685-15.913-36.685-35.544s16.424-35.544 36.685-35.544h324.716c20.26 0 36.685 15.913 36.685 35.544zM379.227 202.817c0-19.63-15.913-35.544-35.544-35.544s-35.544 15.913-35.544 35.544c0 19.63 15.913 35.544 35.544 35.544s35.544-15.913 35.544-35.544zM800.813 238.359h-324.716c-20.26 0-36.685-15.913-36.685-35.544s16.424-35.544 36.685-35.544h274.84l66.984 66.984c-5.108 2.617-10.928 4.103-17.108 4.103zM327.251 75.215c-67.213 0-67.213 30.092-67.213 67.212v491.136c0 37.12 0 67.212 67.213 67.212l60.743 0.017c15.359 0.372 27.697 12.93 27.697 28.378s-12.338 28.006-27.697 28.378v0.094h-105.391c-43.869 0-79.433-35.563-79.433-79.433v-580.433c0-43.869 35.563-79.433 79.433-79.433h319.407l56.869 56.869h-331.628zM942.467 678.21c0 43.869-35.563 79.433-79.433 79.433l-105.391-0.090c-0.179 0.003-0.356 0.013-0.536 0.013-15.683 0-28.396-12.714-28.396-28.396s12.714-28.397 28.396-28.397c0.18 0 0.357 0.010 0.536 0.013v-0.013h60.743c67.212 0 67.212-30.091 67.212-67.212v-331.627l56.869 56.869v319.406zM803.884 18.345h59.151c43.869 0 79.433 35.563 79.433 79.433v59.151l-138.584-138.584zM735.422 687.856h-37.822c-15.209 54.623-65.31 94.707-124.781 94.707s-109.572-40.084-124.781-94.707h-37.822c-22.115 0-40.042-17.927-40.042-40.042s17.927-40.042 40.042-40.042h325.207c22.115 0 40.042 17.927 40.042 40.042s-17.927 40.042-40.042 40.042zM573.2 692.538c-15.424 0-27.929 12.504-27.929 27.928s12.504 27.929 27.929 27.929c15.424 0 27.928-12.504 27.928-27.929s-12.504-27.928-27.928-27.928zM106.418 278.049c0-15.776 12.789-28.567 28.567-28.567 14.941 0 27.195 11.472 28.452 26.088h0.093v1.64c0.008 0.279 0.021 0.557 0.021 0.838s-0.013 0.559-0.021 0.838v455.558c0 37.12 0 67.212 67.212 67.212h340.991c1.255-0.168 2.533-0.263 3.833-0.263 15.776 0 28.567 12.789 28.567 28.567 0 15.776-12.789 28.567-28.567 28.567h-389.473c-43.869 0-79.433-35.563-79.433-79.433v-497.378c-0.153-1.201-0.242-2.423-0.242-3.667zM9.844 375.147c0-15.776 12.789-28.567 28.567-28.567 14.941 0 27.195 11.472 28.452 26.088h0.092v1.64c0.008 0.279 0.021 0.558 0.021 0.838s-0.013 0.559-0.021 0.838v455.558c0 37.12 0 67.212 67.212 67.212h340.991c1.255-0.169 2.533-0.264 3.833-0.264 15.776 0 28.567 12.789 28.567 28.567s-12.789 28.567-28.567 28.567h-389.473c-43.869 0-79.433-35.563-79.433-79.433v-497.378c-0.152-1.199-0.24-2.422-0.24-3.665zM650.547 36.053l248.111 248.111 66.832-66.832-248.111-248.111-66.832 66.832zM905.411 290.924l5.022 5.022 66.832-66.832-5.022-5.022-66.832 66.832zM1010.028 281.574l-47.103 47.104c-5.448 5.448-14.281 5.448-19.729 0l-26.703-26.703 66.832-66.832 26.703 26.702c5.448 5.448 5.448 14.281 0 19.729zM632.359-17.096l-2.104-8.416 25.585-25.585 54.997 13.749-66.832 66.832zM621.727-59.624l24.158 6.040-18.119 18.119z" />
<glyph unicode="&#xe928;" glyph-name="listing-info" d="M270.136 14.621c-16.186 0-31.402 6.296-42.826 17.679l-205.277 205.28c-11.424 11.421-17.679 26.599-17.679 42.822 0 16.225 6.297 31.402 17.679 42.823l346.542 346.545c19.658 19.658 55.378 34.47 83.189 34.47h181.627c33.376 0 60.54-27.165 60.54-60.544v-181.627c0-27.768-14.811-63.527-34.427-83.185l-346.545-346.542c-11.421-11.424-26.598-17.679-42.822-17.679v-0.044zM435.429 612.474c-13.845 0-35.36-8.908-45.136-18.716l-286.409-286.409c-3.135-3.136-4.838-7.307-4.838-11.809 0-4.505 1.738-8.675 4.838-11.777l169.657-169.659c3.136-3.133 7.306-4.835 11.809-4.835 4.505 0 8.676 1.733 11.809 4.835l286.411 286.412c9.773 9.776 18.713 31.322 18.713 45.168v150.111c0 9.207-7.47 16.68-16.677 16.68h-150.177zM511.279 464.893c-33.38 0-60.543 27.164-60.543 60.54 0 33.38 27.163 60.544 60.543 60.544s60.545-27.165 60.545-60.544c0-33.377-27.165-60.54-60.545-60.54v0zM511.279 552.546c-14.966 0-27.114-12.148-27.114-27.115s12.148-27.114 27.114-27.114c14.967 0 27.115 12.148 27.115 27.114s-12.148 27.115-27.115 27.115v0zM1011.546 881.38l-8.402-4.853c-0.91-0.525-22.598-13.472-49.512-65.754-1.464-2.844-3.132-6.199-5.062-10.085-12.201-24.556-34.913-70.262-63.756-98.983-13.134-13.078-23.696-22.074-29.649-27.003-7.518 6.489-21.284 16.639-39.764 25.987-28.996 14.667-60.059 22.421-89.83 22.421-2.59 0-5.213-0.058-7.792-0.172-37.733-1.668-79.481-22.476-124.084-61.849-33.808-29.844-63.467-65.814-79.951-89.525-18.412-26.485-15.305-41.645-11.813-48.325 3.281-6.276 9.469-10.023 16.553-10.023 6.127 0 12.331 2.737 17.47 7.709l0.587 0.569 0.438 0.69c0.261 0.411 26.564 41.609 62.713 82.201 49.689 55.797 93.803 83.694 127.093 80.221 42.060-4.385 67.819-16.79 82.022-26.425 10.154-6.888 15.993-13.372 18.769-16.949-4.864-9.503-16.842-35.131-20.22-62.996-3.748-30.932 2.235-57.854 16.416-73.859 10.353-11.685 24.533-17.611 42.147-17.614 0.003 0 0.005 0 0.008 0 0.777 0 1.554 0.012 2.35 0.036 27.114 0.806 40.634 14.030 47.203 24.98 12.811 21.355 11.294 53.722-3.957 84.468-6.615 13.335-21.882 37.521-28.638 48.067 10.317 9.037 35.59 32.597 58.098 64.861 13.492 19.338 27.374 42.871 38.53 61.78 2.409 4.084 4.71 7.983 6.876 11.62 12.622 21.197 31.731 54.101 31.922 54.432l1.293 2.228-8.058 42.146zM880.097 537.671c-1.492-4.468-4.653-7.324-9.947-8.989-2.205-0.694-4.263-1.045-6.115-1.045-4.408 0-7.748 1.949-10.51 6.136-8.946 13.556-7.841 44.057 1.918 73.216 14.063-21.848 30.049-53.165 24.655-69.318z" />
<glyph unicode="&#xe929;" glyph-name="user-authority" d="M583.224 323.206c-43.87-21.763-93.301-34.002-145.593-34.002-94.818 0-180.225 40.229-240.133 104.537-115.731-77.224-192.189-208.437-193.145-357.528h573.87v268.837c0.001 6.584 1.817 12.771 5.001 18.157zM687.754 619.493c0-137.547-111.504-249.051-249.051-249.051s-249.051 111.504-249.051 249.051c0 137.547 111.504 249.051 249.051 249.051s249.051-111.504 249.051-249.051zM812.485 462.401c57.191 0 103.561-43.267 103.561-96.647h51.777c0 80.059-69.544 144.97-155.338 144.97-85.791 0-155.334-64.91-155.334-144.97h51.775c0.001 53.38 46.371 96.647 103.559 96.647v0 0zM985.083 333.527h-345.191c-19.064 0-34.52-14.428-34.52-32.212v-241.633c0-17.801 15.456-32.227 34.52-32.227h345.193c19.060-0.002 34.518 14.426 34.518 32.227v241.633c0 17.784-15.458 32.212-34.52 32.212v0 0zM990.733 58.932c0-3.664-2.998-6.662-6.664-6.662h-341.527c-3.667 0-6.665 2.998-6.665 6.662v238.239c0 3.667 2.998 6.665 6.665 6.665h341.527c3.667 0 6.664-2.998 6.664-6.665v-238.239zM812.487 252.974l-0.002 0.002c-28.602 0-51.778-21.625-51.778-48.324 0-17.834 10.486-33.257 25.891-41.616v-45.982c0-13.886 11.596-25.164 25.891-25.164 14.291 0 25.891 11.278 25.891 25.164v45.982c15.405 8.358 25.888 23.782 25.888 41.616-0.001 26.695-23.174 48.322-51.779 48.322v0 0z" />
<glyph unicode="&#xe92a;" glyph-name="distribution-rate" d="M1019.105 433.443c-4.058 27.143-15.772 51.038-31.678 72.973-14.218 19.563-28.904 38.852-43.659 58.011-18.82 24.639-37.773 49.212-57.201 73.375-11.774 14.688-27.686 20.715-46.568 20.642-55.78-0.202-111.622-0.067-167.537-0.134-4.736-0.068-9.678-0.403-14.213-1.622-18.484-4.943-28.839-19.629-28.839-40.551v-382.447c0-2.572 0-5.144 0.268-7.716 1.969-19.294 19.77-35.268 38.248-33.78 5.484 33.575 20.915 62.138 46.774 84.548 26.199 22.609 56.928 33.64 91.451 33.64 57.061 0.134 123.33-40.881 136.329-118.931 8.058 0 16.247-0.068 24.366 0.068 7.38 0.133 15.028-0.476 22.134 1.085 18.953 4.058 30.532 19.422 30.532 39.801 0.065 63.833 0 127.732 0 191.495 0.202 3.114 0.067 6.427-0.408 9.542v0zM746.585 424.918v155.891h6.973c27.345 0 54.824-0.341 82.243 0.133 9.745 0.203 16.922-3.59 22.134-10.762 28.766-39.399 57.401-78.929 85.559-118.797 4.673-6.703 7.112-15.028 10.493-22.676 0.476-0.951 0.068-2.302 0.068-3.79l-207.469 0.001zM258.469 261.444c-49.887 0.135-90.165-39.734-90.232-89.623-0.068-49.687 40.137-89.824 90.025-89.824 49.82 0 90.232 40.338 90.097 89.959-0.068 49.345-40.142 89.281-89.89 89.488zM258.275 115.718c-31.139 0-56.234 25.053-56.192 56.066 0.042 31.139 25.183 56.025 56.321 55.94 31.052-0.128 56.066-25.056 56.108-55.856 0.084-30.972-25.141-56.15-56.237-56.15zM805.609 261.444c-49.687 0.471-90.5-39.668-90.774-89.287-0.27-49.547 39.941-89.824 89.896-90.159 49.479-0.274 89.756 39.394 90.232 89.013 0.61 49.68-39.193 89.958-89.354 90.433zM804.796 115.722c-31.179 0.21-56.276 25.347-56.107 56.272 0.171 30.968 25.644 56.021 56.655 55.727 31.307-0.297 56.149-25.434 55.769-56.442-0.298-30.969-25.436-55.727-56.318-55.556zM589.949 770.746c0 2.168 0 4.4-0.14 6.635-0.336 8.056-3.181 15.162-8.051 21.526-9.074 11.573-21.324 15.161-35.541 15.096-165.906-0.135-331.816-0.068-497.659-0.068-2.841 0-5.619-0.14-8.392-0.341-18.618-1.286-33.713-16.315-35.133-34.926-0.268-3.18-0.403-6.295-0.403-9.544 0-177.484 0.201-354.969-0.274-532.525-0.135-28.698 18.344-46.633 45.622-45.349 21.324 1.081 42.849 0.203 64.24 0.203h6.838c11.17 67.89 64.238 113.379 120.965 117.444 84.473 6.161 133.349-37.906 154.668-117.175 0.073 0 0.683-0.201 1.29-0.201 51.035 0 102.075-0.135 153.114 0.201 5.82 0 12.116 1.425 17.26 4.065 15.839 7.851 21.731 21.525 21.731 38.852-0.205 178.701-0.133 357.405-0.133 536.108zM207.422 678.669c0 26.179 21.222 47.401 47.401 47.401h0.837c26.179 0 47.401-21.222 47.401-47.401v-17.176c0-26.179-21.222-47.401-47.401-47.401h-0.837c-26.178 0-47.401 21.222-47.401 47.401v17.176zM398.699 413.164c0-26.179-21.222-47.401-47.401-47.401h-0.837c-26.178 0-47.401 21.222-47.401 47.401v17.176c0 26.179 21.222 47.401 47.401 47.401h0.837c26.179 0 47.401-21.222 47.401-47.401v-17.176zM406.604 683.41l-179.536-310.964c-6.255-10.834-20.109-14.546-30.943-8.292s-14.546 20.109-8.291 30.943l179.536 310.964c6.255 10.834 20.109 14.546 30.943 8.291s14.546-20.108 8.291-30.942zM234.028 673.891c0 11.614 9.414 21.027 21.028 21.027h0.371c11.614 0 21.028-9.414 21.028-21.027v-7.62c0-11.614-9.414-21.028-21.028-21.028h-0.371c-11.614 0-21.028 9.414-21.028 21.028v7.62zM328.172 425.68c0 11.614 9.414 21.027 21.028 21.027h0.371c11.614 0 21.028-9.414 21.028-21.027v-7.62c0-11.614-9.414-21.028-21.028-21.028h-0.371c-11.614 0-21.028 9.414-21.028 21.028v7.62z" />
<glyph unicode="&#xe92b;" glyph-name="receipt-rate" d="M894.789 422.532c1.787-0.552 3.568-1.114 5.34-1.701v335.095l-109.699 163.276c-11.872 17.811-31.869 28.496-53.242 28.496h-571.424c-21.374 0-41.37-10.685-53.243-28.496l-108.168-163.276v-640.015c0-35.187 28.81-63.992 63.992-63.992h489.292c-0.795 1.908-1.562 3.831-2.316 5.761 46.066-66.109 122.633-109.379 209.317-109.379 140.812 0 254.962 114.15 254.962 254.962 0.002 93.264-50.083 174.817-124.812 219.269zM161.952 883.293l582.482 0.501 91.703-127.868h-767.791l93.606 127.367zM68.347 115.912v576.024h767.791v-243.887c-22.686 6.615-46.674 10.177-71.496 10.177-140.811 0-254.962-114.151-254.962-254.962 0-30.686 5.425-60.104 15.361-87.352h-456.693zM764.64-13.515c-119.724 0-216.779 97.055-216.779 216.779s97.055 216.779 216.779 216.779c119.725 0 216.779-97.055 216.779-216.779s-97.054-216.779-216.779-216.779zM941.68 285.904c0 6.7-2.897 12.946-8.149 17.653-10.233 8.966-27.119 9.51-38.346-0.542l-153.48-175.841-90.14 79.821c-10.234 9.010-27.663 9.010-37.804 0-5.297-4.665-8.195-11.004-8.195-17.703s2.899-12.994 8.195-17.657l106.71-94.623c0.498-0.767 1.177-1.855 2.354-2.897 5.028-4.436 11.682-6.883 19.241-6.883h0.771c7.153 0 13.852 2.446 18.924 6.928 1.178 1.088 1.902 2.175 2.492 3.213l169.278 190.872c5.252 4.664 8.149 10.957 8.149 17.659zM261.948 669.437h-1.225c-38.341 0-69.423-31.082-69.423-69.423v-25.156c0-38.341 31.082-69.423 69.423-69.423h1.225c38.341 0 69.423 31.082 69.423 69.423v25.156c0.001 38.34-31.081 69.423-69.423 69.423zM295.538 581.293c0-18.723-15.179-33.903-33.903-33.903h-0.599c-18.723 0-33.903 15.179-33.903 33.903v12.285c0 18.724 15.179 33.903 33.903 33.903h0.599c18.723 0 33.903-15.179 33.903-33.903v-12.285zM402.020 305.732h-1.225c-38.341 0-69.423-31.082-69.423-69.423v-25.156c0-38.341 31.082-69.423 69.423-69.423h1.225c38.341 0 69.423 31.082 69.423 69.423v25.156c0 38.341-31.082 69.423-69.423 69.423zM435.61 217.587c0-18.723-15.179-33.903-33.903-33.903h-0.599c-18.723 0-33.903 15.179-33.903 33.903v12.285c0 18.724 15.179 33.903 33.903 33.903h0.599c18.724 0 33.903-15.179 33.903-33.903v-12.285zM470.878 652.275c-15.867 9.162-36.158 3.725-45.319-12.144l-262.949-455.441c-9.162-15.867-3.725-36.158 12.144-45.319s36.158-3.725 45.319 12.144l262.949 455.441c9.161 15.868 3.724 36.158-12.144 45.319z" />
<glyph unicode="&#xe92c;" glyph-name="total-distribution" d="M589.95 770.746c0 2.168 0 4.4-0.14 6.635-0.336 8.056-3.181 15.162-8.051 21.526-9.074 11.573-21.324 15.161-35.541 15.096-165.906-0.135-331.816-0.068-497.659-0.068-2.841 0-5.619-0.14-8.393-0.341-18.617-1.286-33.713-16.315-35.133-34.926-0.268-3.18-0.403-6.295-0.403-9.544 0-177.484 0.201-354.969-0.273-532.525-0.135-28.698 18.344-46.633 45.622-45.349 21.324 1.081 42.849 0.203 64.24 0.203h6.838c11.17 67.89 64.239 113.379 120.965 117.444 84.473 6.161 133.349-37.906 154.668-117.175 0.073 0 0.683-0.201 1.29-0.201 51.035 0 102.075-0.135 153.114 0.201 5.82 0 12.116 1.425 17.26 4.065 15.839 7.851 21.731 21.525 21.731 38.852-0.206 178.701-0.133 357.405-0.133 536.108zM403.911 487.746l0.611-0.062c0 0 1.979-0.203 2.946-0.32 17.087-2.090 29.976-16.661 29.976-33.892 0-18.833-15.321-34.153-34.153-34.153l-70.306-0.104-0.099-39.185c0-18.81-15.321-34.131-34.154-34.131s-34.154 15.321-34.154 34.153l-0.099 39.164-67.21 0.103c-18.815 0-34.135 15.321-34.135 34.153 0 17.23 12.889 31.802 29.981 33.892 0.96 0.118 2.941 0.32 2.941 0.32l0.617 0.063 0.615-0.001h67.169v21.791l-68.634 0.145c-18.319 0-32.69 14.98-32.69 34.104 0 18.833 15.321 34.153 34.154 34.153l40.825 0.080-67.8 119.105c-0.098 0.16-0.189 0.312-0.277 0.47-4.716 8.283-5.927 17.923-3.399 27.132 2.527 9.209 8.488 16.88 16.785 21.604 6.013 3.424 12.524 5.233 18.827 5.233 11.751 0 21.947-6.074 27.976-16.664 0.228-0.397 46.023-79.965 67.297-116.929l65.215 114.529c0.075 0.142 0.166 0.31 0.261 0.477 6.329 11.116 18.24 18.039 31.073 18.039 6.171 0 12.28-1.62 17.663-4.686 8.298-4.724 14.259-12.397 16.785-21.604 2.528-9.209 1.317-18.849-3.407-27.147-0.067-0.119-0.162-0.279-0.263-0.446l-67.691-118.908 48.038 0.37c18.425 0 32.247-14.965 32.247-34.809 0-19.133-14.476-34.12-32.955-34.12l-71.483-0.132v-21.788h70.907zM1019.105 433.443c-4.059 27.144-15.772 51.039-31.678 72.973-14.218 19.563-28.904 38.852-43.659 58.011-18.82 24.64-37.773 49.212-57.201 73.375-11.774 14.688-27.686 20.715-46.568 20.642-55.78-0.201-111.622-0.065-167.537-0.134-4.736-0.067-9.678-0.403-14.213-1.622-18.484-4.943-28.839-19.629-28.839-40.551v-382.447c0-2.572 0-5.144 0.268-7.716 1.969-19.294 19.77-35.267 38.248-33.78 5.484 33.575 20.915 62.138 46.774 84.548 26.199 22.609 56.928 33.641 91.451 33.641 57.061 0.133 123.33-40.882 136.329-118.931 8.056 0 16.247-0.068 24.366 0.068 7.38 0.133 15.028-0.476 22.134 1.085 18.954 4.058 30.532 19.422 30.532 39.801 0.065 63.833 0 127.732 0 191.495 0.201 3.113 0.065 6.427-0.408 9.541v0zM746.585 424.918v155.891h6.973c27.345 0 54.824-0.341 82.243 0.133 9.745 0.203 16.922-3.59 22.134-10.762 28.766-39.399 57.402-78.928 85.559-118.797 4.673-6.703 7.111-15.028 10.493-22.676 0.476-0.951 0.068-2.303 0.068-3.79l-207.469 0.001zM258.469 261.444c-49.887 0.135-90.165-39.734-90.232-89.623-0.068-49.687 40.137-89.824 90.025-89.824 49.82 0 90.232 40.338 90.097 89.959-0.068 49.346-40.142 89.281-89.89 89.488zM258.275 115.718c-31.139 0-56.234 25.053-56.192 56.066 0.042 31.139 25.183 56.025 56.321 55.94 31.052-0.128 56.066-25.056 56.108-55.856 0.084-30.972-25.141-56.15-56.237-56.15zM805.609 261.444c-49.687 0.471-90.5-39.667-90.774-89.287-0.27-49.547 39.94-89.824 89.896-90.159 49.479-0.274 89.756 39.394 90.232 89.013 0.61 49.68-39.193 89.958-89.354 90.433zM804.796 115.722c-31.179 0.21-56.276 25.347-56.107 56.272 0.171 30.969 25.644 56.021 56.655 55.727 31.307-0.297 56.149-25.434 55.769-56.442-0.298-30.969-25.436-55.727-56.318-55.556z" />
<glyph unicode="&#xe92d;" glyph-name="total-purchase" d="M534.942 433.826c-0.81 0.099-2.47 0.269-2.47 0.269l-0.513 0.052h-59.458v18.27l59.943 0.111c15.496 0 27.634 12.567 27.634 28.612 0 16.641-11.591 29.189-27.042 29.189l-40.282-0.311 56.763 99.711c0.085 0.14 0.165 0.275 0.221 0.374 3.961 6.958 4.976 15.043 2.857 22.764s-7.117 14.155-14.076 18.117c-4.515 2.571-9.637 3.929-14.812 3.929-10.761 0-20.749-5.805-26.056-15.127-0.080-0.14-0.156-0.28-0.219-0.4l-54.687-96.040c-17.839 30.996-56.241 97.719-56.432 98.051-5.056 8.88-13.607 13.973-23.46 13.973-5.285 0-10.745-1.517-15.788-4.388-6.957-3.961-11.957-10.395-14.076-18.117s-1.104-15.806 2.851-22.751c0.075-0.132 0.15-0.26 0.233-0.394l56.855-99.877-34.235-0.067c-15.793 0-28.64-12.848-28.64-28.639 0-16.036 12.050-28.597 27.412-28.597l57.554-0.122v-18.273l-57.358-0.052c0 0-1.661-0.17-2.466-0.269-14.332-1.753-25.141-13.971-25.141-28.42 0-15.793 12.848-28.639 28.625-28.639l56.36-0.086 0.083-32.842c0-15.793 12.848-28.639 28.639-28.639 15.793 0 28.64 12.848 28.64 28.621l0.083 32.859 58.956 0.087c15.793 0 28.639 12.848 28.639 28.639-0.002 14.451-10.809 26.669-25.138 28.422zM696.178 193.908c-11.77 0-22.986-2.37-33.201-6.648-19.979-8.367-36.11-24.062-45.077-43.72-4.956-10.865-7.739-22.931-7.739-35.656 0-47.506 38.507-86.014 86.018-86.014 47.499 0 86.015 38.512 86.015 86.014-0.001 47.517-38.517 86.024-86.016 86.024zM956.154 874.129h-158.639c-32.017 0-59.011-24.012-62.974-56.022l-8.911-71.878h-591.825l-4.979 17.559c-9.647 33.947-44.761 53.617-78.456 43.925l0.026 0.037c-33.689-9.723-53.203-45.118-43.592-79.073l126.906-447.64c7.775-27.456 32.677-46.387 61.013-46.387h539.343c32.017 0 59.011 24.013 62.974 56.024l56.51 455.556h102.604c35.054 0 63.449 28.617 63.449 63.956 0.001 35.327-28.394 63.943-63.448 63.943zM708.262 298.399h-491.536l-111.441 376.984h665.408l-62.431-376.984zM262.383 193.908c-36.53 0-67.714-22.772-80.191-54.887-3.752-9.658-5.833-20.15-5.833-31.136 0-47.506 38.509-86.014 86.024-86.014 47.506 0 86.013 38.512 86.013 86.014 0 10.985-2.080 21.478-5.832 31.136-12.476 32.115-43.657 54.887-80.181 54.887z" />
<glyph unicode="&#xe92e;" glyph-name="total-receipt" d="M676.649 566.37c0 9.249-3.999 17.869-11.248 24.368-14.125 12.375-37.433 13.127-52.929-0.749l-211.847-242.713-124.42 110.176c-14.127 12.436-38.184 12.436-52.181 0-7.312-6.439-11.312-15.188-11.312-24.436s4.001-17.935 11.312-24.372l147.292-130.608c0.688-1.059 1.625-2.56 3.248-3.999 6.939-6.123 16.125-9.499 26.559-9.499h1.064c9.872 0 19.12 3.376 26.121 9.562 1.626 1.501 2.626 3.001 3.438 4.435l233.655 263.46c7.25 6.438 11.249 15.123 11.249 24.374zM853.521 148.069c15.762 0 28.109 12.783 28.109 29.103 0 16.928-11.791 29.691-27.506 29.691l-40.975-0.316 57.739 101.426c0.086 0.142 0.168 0.279 0.224 0.381 4.030 7.078 5.062 15.301 2.906 23.155-2.155 7.854-7.24 14.399-14.317 18.429-4.593 2.615-9.803 3.997-15.067 3.997-10.946 0-21.106-5.906-26.505-15.386-0.082-0.142-0.159-0.286-0.223-0.406l-55.628-97.692c-18.146 31.529-57.208 99.399-57.402 99.738-5.143 9.033-13.84 14.214-23.864 14.214-5.376 0-10.93-1.543-16.059-4.464-7.077-4.030-12.163-10.574-14.317-18.429s-1.124-16.078 2.899-23.143c0.076-0.134 0.153-0.264 0.236-0.4l57.832-101.594-34.823-0.068c-16.064 0-29.133-13.069-29.133-29.133 0-16.312 12.258-29.090 27.884-29.090l58.543-0.124v-18.588l-58.345-0.052c0 0-1.689-0.173-2.508-0.274-14.579-1.784-25.573-14.212-25.573-28.909 0-16.064 13.069-29.131 29.117-29.131l57.329-0.087 0.084-33.407c0-16.064 13.069-29.131 29.133-29.131s29.133 13.069 29.133 29.113l0.085 33.425 59.97 0.088c16.064 0 29.133 13.069 29.133 29.131 0 14.698-10.993 27.127-25.568 28.909-0.825 0.101-2.513 0.274-2.513 0.274l-0.522 0.052h-60.48v18.585l60.974 0.113zM894.788 422.532c1.787-0.552 3.569-1.114 5.341-1.701v335.095l-109.699 163.276c-11.872 17.811-31.868 28.496-53.242 28.496h-571.424c-21.374 0-41.37-10.685-53.243-28.496l-108.167-163.276v-640.015c0-35.187 28.809-63.992 63.992-63.992h489.292c-0.795 1.908-1.563 3.831-2.316 5.761 46.066-66.109 122.633-109.379 209.317-109.379 140.812 0 254.962 114.15 254.962 254.962 0.001 93.264-50.084 174.817-124.814 219.269zM161.952 883.293l582.483 0.501 91.703-127.868h-767.791l93.605 127.367zM68.347 115.912v576.024h767.791v-243.887c-22.686 6.615-46.674 10.177-71.496 10.177-140.812 0-254.963-114.151-254.963-254.962 0-30.686 5.425-60.104 15.361-87.352h-456.692zM764.641-13.515c-119.724 0-216.779 97.055-216.779 216.779s97.055 216.779 216.779 216.779 216.779-97.055 216.779-216.779-97.055-216.779-216.779-216.779z" />
<glyph unicode="&#xe92f;" glyph-name="analysis" d="M978.284 39.477l-168.526 168.526 3.275 3.29c68.521 78.576 110.043 181.263 110.043 293.634 0 246.805-200.070 446.874-446.874 446.874s-446.874-200.070-446.874-446.874c0-246.805 200.069-446.874 446.874-446.874 92.414 0 178.277 28.060 249.537 76.11l173.616-173.616c21.795-21.795 57.134-21.795 78.93 0s21.794 57.133-0.001 78.93zM476.201 151.408c-47.76 0-94.075 9.348-137.586 27.789-42.065 17.761-79.882 43.341-112.431 75.803s-57.957 70.28-75.803 112.431c-18.356 43.511-27.704 89.74-27.704 137.5s9.348 94.075 27.789 137.585c17.761 42.066 43.341 79.882 75.803 112.431 32.463 32.548 70.28 57.958 112.431 75.803 43.51 18.441 89.825 27.789 137.585 27.789s94.075-9.348 137.585-27.789c42.066-17.762 79.882-43.341 112.431-75.803s57.957-70.28 75.803-112.431c18.27-43.511 27.619-89.825 27.619-137.585s-9.348-94.075-27.789-137.585c-17.761-42.066-43.34-79.882-75.803-112.431s-70.28-57.958-112.431-75.803c-43.425-18.357-89.739-27.704-137.499-27.704zM673.844 704.057c38.522 0.099 70.935-29.574 74.014-67.756 3.126-38.75-23.77-72.592-62.532-78.998-8.915-1.475-17.719-1.289-26.394 0.701-3.414 0.783-4.703-0.228-6.207-2.833-27.224-47.128-54.429-94.267-81.915-141.242-2.842-4.858 0.647-5.597 3.009-7.471 18.88-14.979 27.634-34.596 24.521-58.396-3.254-24.884-17.332-42.299-40.869-51.263-25.152-9.578-53.248-1.753-70.33 18.898-17.166 20.754-19.514 49.381-5.577 72.554 2.375 3.948 2.452 5.664-1.563 8.632-38.481 28.454-76.78 57.157-115.024 85.929-3.204 2.411-5.594 2.915-9.376 1.1-8.745-4.198-18.228-5.815-27.832-4.392-4.162 0.617-5.873-0.75-7.725-3.988-11.423-19.974-22.93-39.898-34.631-59.709-2.172-3.678-2.267-5.869 0.617-9.586 12.902-16.633 14.538-34.802 4.829-53.506-8.92-17.186-28.58-27.576-47.695-25.018-20.487 2.742-34.692 14.010-41.111 33.854-11.196 34.613 18.977 68.712 54.819 62.061 4.034-0.748 5.881 0.389 7.788 3.743 10.83 19.037 21.749 38.026 32.954 56.845 2.433 4.087 2.385 6.216-1.374 9.628-17.743 16.105-22.857 41.014-13.431 62.599 9.388 21.498 31.236 34.611 55.022 33.025 22.577-1.505 42.257-17.623 48.689-39.99 4.328-15.049 2.465-29.45-5.477-42.857-2.095-3.538-1.495-5.086 1.55-7.349 38.765-28.816 77.456-57.732 116.103-86.705 2.549-1.912 4.415-2.555 7.534-0.799 10.7 6.023 22.391 8.397 34.572 7.188 4.352-0.432 6.14 1.167 8.139 4.64 26.835 46.586 53.778 93.11 80.891 139.532 2.43 4.161 2.539 6.216-1.61 9.452-24.684 19.259-34.083 52.202-23.839 81.872 10.159 29.432 38.292 49.523 69.459 49.604v0z" />
<glyph unicode="&#xe930;" glyph-name="statistical" d="M542.099 478.513l-246.418 379.834c183.194 118.6 422.943 90.464 573.424-70.694 43.596-46.758 78.070-105.231 98.641-167.654l-425.646-141.485zM462.14 502.499l-417.154 167.010c24.536 62.563 60.706 117.985 108.708 163.423 18.686 17.647 38.877 33.718 60.581 48.173l247.865-378.606zM529.205 417.569l427.092 139.801c54.92-166.475 8.054-350.454-118.772-470.281-181.495-171.602-465.344-160.814-635.327 21.342-118.901 127.345-153.752 312.805-90.15 476.071l417.157-166.933z" />
</font>
</defs>
</svg>
